<?xml version="1.0" encoding="UTF-8" standalone="no"?>
<!-- Created with Inkscape (http://www.inkscape.org/) -->

<svg
   xmlns:dc="http://purl.org/dc/elements/1.1/"
   xmlns:cc="http://creativecommons.org/ns#"
   xmlns:rdf="http://www.w3.org/1999/02/22-rdf-syntax-ns#"
   xmlns:svg="http://www.w3.org/2000/svg"
   xmlns="http://www.w3.org/2000/svg"
   xmlns:sodipodi="http://sodipodi.sourceforge.net/DTD/sodipodi-0.dtd"
   xmlns:inkscape="http://www.inkscape.org/namespaces/inkscape"
   width="54.680584mm"
   height="53.797363mm"
   viewBox="0 0 54.680589 53.797367"
   version="1.1"
   id="svg1921"
   inkscape:version="0.92.4 (5da689c313, 2019-01-14)"
   sodipodi:docname="complete2.svg">
  <defs
     id="defs1915" />
  <sodipodi:namedview
     id="base"
     pagecolor="#ffffff"
     bordercolor="#666666"
     borderopacity="1.0"
     inkscape:pageopacity="0.0"
     inkscape:pageshadow="2"
     inkscape:zoom="3.959798"
     inkscape:cx="125.74411"
     inkscape:cy="91.668353"
     inkscape:document-units="mm"
     inkscape:current-layer="layer1"
     showgrid="false"
     inkscape:window-width="1858"
     inkscape:window-height="1058"
     inkscape:window-x="1016"
     inkscape:window-y="-8"
     inkscape:window-maximized="1" />
  <metadata
     id="metadata1918">
    <rdf:RDF>
      <cc:Work
         rdf:about="">
        <dc:format>image/svg+xml</dc:format>
        <dc:type
           rdf:resource="http://purl.org/dc/dcmitype/StillImage" />
        <dc:title></dc:title>
      </cc:Work>
    </rdf:RDF>
  </metadata>
  <g
     inkscape:label="Layer 1"
     inkscape:groupmode="layer"
     id="layer1"
     transform="translate(-159.59678,-126.26605)">
    <path
       sodipodi:type="star"
       style="opacity:1;fill:none;fill-opacity:1;stroke:#00ff00;stroke-width:0.2;stroke-linecap:round;stroke-linejoin:bevel;stroke-miterlimit:4;stroke-dasharray:none;stroke-dashoffset:0;stroke-opacity:1;paint-order:markers fill stroke"
       id="path10704"
       sodipodi:sides="12"
       sodipodi:cx="156.0854"
       sodipodi:cy="176.06055"
       sodipodi:r1="26.259571"
       sodipodi:r2="21.244438"
       sodipodi:arg1="1.5707963"
       sodipodi:arg2="1.8325957"
       inkscape:flatsided="true"
       inkscape:rounded="0"
       inkscape:randomized="0"
       d="m 156.0854,202.32012 -13.12978,-3.51812 -9.61167,-9.61167 -3.51812,-13.12978 3.51812,-13.12979 9.61167,-9.61167 13.12978,-3.51811 13.12979,3.51811 9.61167,9.61167 3.51811,13.12979 -3.51811,13.12978 -9.61167,9.61167 z"
       inkscape:transform-center-x="1.7731176"
       inkscape:transform-center-y="1.7731097"
       transform="rotate(45,198.98075,202.00303)" />
    <g
       style="stroke:#00ff00"
       id="g10733"
       transform="translate(32.680976,-21.998763)">
      <path
         inkscape:connector-curvature="0"
         id="path10706"
         d="m 135.74396,156.75777 37.13665,37.13664"
         style="opacity:1;fill:none;fill-opacity:1;stroke:#00ff00;stroke-width:0.2;stroke-linecap:round;stroke-linejoin:bevel;stroke-miterlimit:4;stroke-dasharray:none;stroke-dashoffset:0;stroke-opacity:1;paint-order:markers fill stroke" />
      <path
         inkscape:connector-curvature="0"
         id="path10708"
         d="m 161.10876,200.69089 -25.3648,-43.93312"
         style="opacity:1;fill:none;fill-opacity:1;stroke:#00ff00;stroke-width:0.2;stroke-linecap:round;stroke-linejoin:bevel;stroke-miterlimit:4;stroke-dasharray:none;stroke-dashoffset:0;stroke-opacity:1;paint-order:markers fill stroke" />
      <path
         inkscape:connector-curvature="0"
         id="path10710"
         d="m 179.67708,182.12257 -43.93312,-25.3648"
         style="opacity:1;fill:none;fill-opacity:1;stroke:#00ff00;stroke-width:0.2;stroke-linecap:round;stroke-linejoin:bevel;stroke-miterlimit:4;stroke-dasharray:none;stroke-dashoffset:0;stroke-opacity:1;paint-order:markers fill stroke" />
      <path
         inkscape:connector-curvature="0"
         id="path10712"
         d="M 179.67708,168.52961 135.74396,156.75777"
         style="opacity:1;fill:none;fill-opacity:1;stroke:#00ff00;stroke-width:0.2;stroke-linecap:round;stroke-linejoin:bevel;stroke-miterlimit:4;stroke-dasharray:none;stroke-dashoffset:0;stroke-opacity:1;paint-order:markers fill stroke" />
      <path
         inkscape:connector-curvature="0"
         id="path10714"
         d="M 172.88061,156.75777 H 135.74396"
         style="opacity:1;fill:none;fill-opacity:1;stroke:#00ff00;stroke-width:0.2;stroke-linecap:round;stroke-linejoin:bevel;stroke-miterlimit:4;stroke-dasharray:none;stroke-dashoffset:0;stroke-opacity:1;paint-order:markers fill stroke" />
      <path
         inkscape:connector-curvature="0"
         id="path10716"
         d="m 161.10876,149.96129 -25.3648,6.79648"
         style="opacity:1;fill:none;fill-opacity:1;stroke:#00ff00;stroke-width:0.2;stroke-linecap:round;stroke-linejoin:bevel;stroke-miterlimit:4;stroke-dasharray:none;stroke-dashoffset:0;stroke-opacity:1;paint-order:markers fill stroke" />
      <path
         inkscape:connector-curvature="0"
         id="path10718"
         d="M 147.51581,200.69089 135.74396,156.75777"
         style="opacity:1;fill:none;fill-opacity:1;stroke:#00ff00;stroke-width:0.2;stroke-linecap:round;stroke-linejoin:bevel;stroke-miterlimit:4;stroke-dasharray:none;stroke-dashoffset:0;stroke-opacity:1;paint-order:markers fill stroke" />
      <path
         inkscape:connector-curvature="0"
         id="path10720"
         d="m 135.74397,193.89441 -1e-5,-37.13664"
         style="opacity:1;fill:none;fill-opacity:1;stroke:#00ff00;stroke-width:0.2;stroke-linecap:round;stroke-linejoin:bevel;stroke-miterlimit:4;stroke-dasharray:none;stroke-dashoffset:0;stroke-opacity:1;paint-order:markers fill stroke" />
      <path
         inkscape:connector-curvature="0"
         id="path10722"
         d="m 128.94749,182.12257 6.79647,-25.3648"
         style="opacity:1;fill:none;fill-opacity:1;stroke:#00ff00;stroke-width:0.2;stroke-linecap:round;stroke-linejoin:bevel;stroke-miterlimit:4;stroke-dasharray:none;stroke-dashoffset:0;stroke-opacity:1;paint-order:markers fill stroke" />
    </g>
    <g
       style="stroke:#00ff00"
       id="g10753"
       transform="matrix(-1,0,0,1,341.30655,-21.998763)">
      <path
         style="opacity:1;fill:none;fill-opacity:1;stroke:#00ff00;stroke-width:0.2;stroke-linecap:round;stroke-linejoin:bevel;stroke-miterlimit:4;stroke-dasharray:none;stroke-dashoffset:0;stroke-opacity:1;paint-order:markers fill stroke"
         d="m 135.74396,156.75777 37.13665,37.13664"
         id="path10735"
         inkscape:connector-curvature="0" />
      <path
         style="opacity:1;fill:none;fill-opacity:1;stroke:#00ff00;stroke-width:0.2;stroke-linecap:round;stroke-linejoin:bevel;stroke-miterlimit:4;stroke-dasharray:none;stroke-dashoffset:0;stroke-opacity:1;paint-order:markers fill stroke"
         d="m 161.10876,200.69089 -25.3648,-43.93312"
         id="path10737"
         inkscape:connector-curvature="0" />
      <path
         style="opacity:1;fill:none;fill-opacity:1;stroke:#00ff00;stroke-width:0.2;stroke-linecap:round;stroke-linejoin:bevel;stroke-miterlimit:4;stroke-dasharray:none;stroke-dashoffset:0;stroke-opacity:1;paint-order:markers fill stroke"
         d="m 179.67708,182.12257 -43.93312,-25.3648"
         id="path10739"
         inkscape:connector-curvature="0" />
      <path
         style="opacity:1;fill:none;fill-opacity:1;stroke:#00ff00;stroke-width:0.2;stroke-linecap:round;stroke-linejoin:bevel;stroke-miterlimit:4;stroke-dasharray:none;stroke-dashoffset:0;stroke-opacity:1;paint-order:markers fill stroke"
         d="M 179.67708,168.52961 135.74396,156.75777"
         id="path10741"
         inkscape:connector-curvature="0" />
      <path
         style="opacity:1;fill:none;fill-opacity:1;stroke:#00ff00;stroke-width:0.2;stroke-linecap:round;stroke-linejoin:bevel;stroke-miterlimit:4;stroke-dasharray:none;stroke-dashoffset:0;stroke-opacity:1;paint-order:markers fill stroke"
         d="M 172.88061,156.75777 H 135.74396"
         id="path10743"
         inkscape:connector-curvature="0" />
      <path
         style="opacity:1;fill:none;fill-opacity:1;stroke:#00ff00;stroke-width:0.2;stroke-linecap:round;stroke-linejoin:bevel;stroke-miterlimit:4;stroke-dasharray:none;stroke-dashoffset:0;stroke-opacity:1;paint-order:markers fill stroke"
         d="m 161.10876,149.96129 -25.3648,6.79648"
         id="path10745"
         inkscape:connector-curvature="0" />
      <path
         style="opacity:1;fill:none;fill-opacity:1;stroke:#00ff00;stroke-width:0.2;stroke-linecap:round;stroke-linejoin:bevel;stroke-miterlimit:4;stroke-dasharray:none;stroke-dashoffset:0;stroke-opacity:1;paint-order:markers fill stroke"
         d="M 147.51581,200.69089 135.74396,156.75777"
         id="path10747"
         inkscape:connector-curvature="0" />
      <path
         style="opacity:1;fill:none;fill-opacity:1;stroke:#00ff00;stroke-width:0.2;stroke-linecap:round;stroke-linejoin:bevel;stroke-miterlimit:4;stroke-dasharray:none;stroke-dashoffset:0;stroke-opacity:1;paint-order:markers fill stroke"
         d="m 135.74397,193.89441 -1e-5,-37.13664"
         id="path10749"
         inkscape:connector-curvature="0" />
      <path
         style="opacity:1;fill:none;fill-opacity:1;stroke:#00ff00;stroke-width:0.2;stroke-linecap:round;stroke-linejoin:bevel;stroke-miterlimit:4;stroke-dasharray:none;stroke-dashoffset:0;stroke-opacity:1;paint-order:markers fill stroke"
         d="m 128.94749,182.12257 6.79647,-25.3648"
         id="path10751"
         inkscape:connector-curvature="0" />
    </g>
    <g
       style="stroke:#00ff00"
       transform="rotate(-180,170.65327,164.32721)"
       id="g10773">
      <path
         inkscape:connector-curvature="0"
         id="path10755"
         d="m 135.74396,156.75777 37.13665,37.13664"
         style="opacity:1;fill:none;fill-opacity:1;stroke:#00ff00;stroke-width:0.2;stroke-linecap:round;stroke-linejoin:bevel;stroke-miterlimit:4;stroke-dasharray:none;stroke-dashoffset:0;stroke-opacity:1;paint-order:markers fill stroke" />
      <path
         inkscape:connector-curvature="0"
         id="path10757"
         d="m 161.10876,200.69089 -25.3648,-43.93312"
         style="opacity:1;fill:none;fill-opacity:1;stroke:#00ff00;stroke-width:0.2;stroke-linecap:round;stroke-linejoin:bevel;stroke-miterlimit:4;stroke-dasharray:none;stroke-dashoffset:0;stroke-opacity:1;paint-order:markers fill stroke" />
      <path
         inkscape:connector-curvature="0"
         id="path10759"
         d="m 179.67708,182.12257 -43.93312,-25.3648"
         style="opacity:1;fill:none;fill-opacity:1;stroke:#00ff00;stroke-width:0.2;stroke-linecap:round;stroke-linejoin:bevel;stroke-miterlimit:4;stroke-dasharray:none;stroke-dashoffset:0;stroke-opacity:1;paint-order:markers fill stroke" />
      <path
         inkscape:connector-curvature="0"
         id="path10761"
         d="M 179.67708,168.52961 135.74396,156.75777"
         style="opacity:1;fill:none;fill-opacity:1;stroke:#00ff00;stroke-width:0.2;stroke-linecap:round;stroke-linejoin:bevel;stroke-miterlimit:4;stroke-dasharray:none;stroke-dashoffset:0;stroke-opacity:1;paint-order:markers fill stroke" />
      <path
         inkscape:connector-curvature="0"
         id="path10763"
         d="M 172.88061,156.75777 H 135.74396"
         style="opacity:1;fill:none;fill-opacity:1;stroke:#00ff00;stroke-width:0.2;stroke-linecap:round;stroke-linejoin:bevel;stroke-miterlimit:4;stroke-dasharray:none;stroke-dashoffset:0;stroke-opacity:1;paint-order:markers fill stroke" />
      <path
         inkscape:connector-curvature="0"
         id="path10765"
         d="m 161.10876,149.96129 -25.3648,6.79648"
         style="opacity:1;fill:none;fill-opacity:1;stroke:#00ff00;stroke-width:0.2;stroke-linecap:round;stroke-linejoin:bevel;stroke-miterlimit:4;stroke-dasharray:none;stroke-dashoffset:0;stroke-opacity:1;paint-order:markers fill stroke" />
      <path
         inkscape:connector-curvature="0"
         id="path10767"
         d="M 147.51581,200.69089 135.74396,156.75777"
         style="opacity:1;fill:none;fill-opacity:1;stroke:#00ff00;stroke-width:0.2;stroke-linecap:round;stroke-linejoin:bevel;stroke-miterlimit:4;stroke-dasharray:none;stroke-dashoffset:0;stroke-opacity:1;paint-order:markers fill stroke" />
      <path
         inkscape:connector-curvature="0"
         id="path10769"
         d="m 135.74397,193.89441 -1e-5,-37.13664"
         style="opacity:1;fill:none;fill-opacity:1;stroke:#00ff00;stroke-width:0.2;stroke-linecap:round;stroke-linejoin:bevel;stroke-miterlimit:4;stroke-dasharray:none;stroke-dashoffset:0;stroke-opacity:1;paint-order:markers fill stroke" />
      <path
         inkscape:connector-curvature="0"
         id="path10771"
         d="m 128.94749,182.12257 6.79647,-25.3648"
         style="opacity:1;fill:none;fill-opacity:1;stroke:#00ff00;stroke-width:0.2;stroke-linecap:round;stroke-linejoin:bevel;stroke-miterlimit:4;stroke-dasharray:none;stroke-dashoffset:0;stroke-opacity:1;paint-order:markers fill stroke" />
    </g>
    <g
       style="stroke:#00ff00"
       id="g10793"
       transform="matrix(1,0,0,-1,32.680966,328.65442)">
      <path
         style="opacity:1;fill:none;fill-opacity:1;stroke:#00ff00;stroke-width:0.2;stroke-linecap:round;stroke-linejoin:bevel;stroke-miterlimit:4;stroke-dasharray:none;stroke-dashoffset:0;stroke-opacity:1;paint-order:markers fill stroke"
         d="m 135.74396,156.75777 37.13665,37.13664"
         id="path10775"
         inkscape:connector-curvature="0" />
      <path
         style="opacity:1;fill:none;fill-opacity:1;stroke:#00ff00;stroke-width:0.2;stroke-linecap:round;stroke-linejoin:bevel;stroke-miterlimit:4;stroke-dasharray:none;stroke-dashoffset:0;stroke-opacity:1;paint-order:markers fill stroke"
         d="m 161.10876,200.69089 -25.3648,-43.93312"
         id="path10777"
         inkscape:connector-curvature="0" />
      <path
         style="opacity:1;fill:none;fill-opacity:1;stroke:#00ff00;stroke-width:0.2;stroke-linecap:round;stroke-linejoin:bevel;stroke-miterlimit:4;stroke-dasharray:none;stroke-dashoffset:0;stroke-opacity:1;paint-order:markers fill stroke"
         d="m 179.67708,182.12257 -43.93312,-25.3648"
         id="path10779"
         inkscape:connector-curvature="0" />
      <path
         style="opacity:1;fill:none;fill-opacity:1;stroke:#00ff00;stroke-width:0.2;stroke-linecap:round;stroke-linejoin:bevel;stroke-miterlimit:4;stroke-dasharray:none;stroke-dashoffset:0;stroke-opacity:1;paint-order:markers fill stroke"
         d="M 179.67708,168.52961 135.74396,156.75777"
         id="path10781"
         inkscape:connector-curvature="0" />
      <path
         style="opacity:1;fill:none;fill-opacity:1;stroke:#00ff00;stroke-width:0.2;stroke-linecap:round;stroke-linejoin:bevel;stroke-miterlimit:4;stroke-dasharray:none;stroke-dashoffset:0;stroke-opacity:1;paint-order:markers fill stroke"
         d="M 172.88061,156.75777 H 135.74396"
         id="path10783"
         inkscape:connector-curvature="0" />
      <path
         style="opacity:1;fill:none;fill-opacity:1;stroke:#00ff00;stroke-width:0.2;stroke-linecap:round;stroke-linejoin:bevel;stroke-miterlimit:4;stroke-dasharray:none;stroke-dashoffset:0;stroke-opacity:1;paint-order:markers fill stroke"
         d="m 161.10876,149.96129 -25.3648,6.79648"
         id="path10785"
         inkscape:connector-curvature="0" />
      <path
         style="opacity:1;fill:none;fill-opacity:1;stroke:#00ff00;stroke-width:0.2;stroke-linecap:round;stroke-linejoin:bevel;stroke-miterlimit:4;stroke-dasharray:none;stroke-dashoffset:0;stroke-opacity:1;paint-order:markers fill stroke"
         d="M 147.51581,200.69089 135.74396,156.75777"
         id="path10787"
         inkscape:connector-curvature="0" />
      <path
         style="opacity:1;fill:none;fill-opacity:1;stroke:#00ff00;stroke-width:0.2;stroke-linecap:round;stroke-linejoin:bevel;stroke-miterlimit:4;stroke-dasharray:none;stroke-dashoffset:0;stroke-opacity:1;paint-order:markers fill stroke"
         d="m 135.74397,193.89441 -1e-5,-37.13664"
         id="path10789"
         inkscape:connector-curvature="0" />
      <path
         style="opacity:1;fill:none;fill-opacity:1;stroke:#00ff00;stroke-width:0.2;stroke-linecap:round;stroke-linejoin:bevel;stroke-miterlimit:4;stroke-dasharray:none;stroke-dashoffset:0;stroke-opacity:1;paint-order:markers fill stroke"
         d="m 128.94749,182.12257 6.79647,-25.3648"
         id="path10791"
         inkscape:connector-curvature="0" />
    </g>
    <g
       style="stroke:#00ff00"
       transform="matrix(0.8660254,0.5,0.5,-0.8660254,-34.308336,228.00872)"
       id="g10813">
      <path
         inkscape:connector-curvature="0"
         id="path10795"
         d="m 135.74396,156.75777 37.13665,37.13664"
         style="opacity:1;fill:none;fill-opacity:1;stroke:#00ff00;stroke-width:0.2;stroke-linecap:round;stroke-linejoin:bevel;stroke-miterlimit:4;stroke-dasharray:none;stroke-dashoffset:0;stroke-opacity:1;paint-order:markers fill stroke" />
      <path
         inkscape:connector-curvature="0"
         id="path10797"
         d="m 161.10876,200.69089 -25.3648,-43.93312"
         style="opacity:1;fill:none;fill-opacity:1;stroke:#00ff00;stroke-width:0.2;stroke-linecap:round;stroke-linejoin:bevel;stroke-miterlimit:4;stroke-dasharray:none;stroke-dashoffset:0;stroke-opacity:1;paint-order:markers fill stroke" />
      <path
         inkscape:connector-curvature="0"
         id="path10799"
         d="m 179.67708,182.12257 -43.93312,-25.3648"
         style="opacity:1;fill:none;fill-opacity:1;stroke:#00ff00;stroke-width:0.2;stroke-linecap:round;stroke-linejoin:bevel;stroke-miterlimit:4;stroke-dasharray:none;stroke-dashoffset:0;stroke-opacity:1;paint-order:markers fill stroke" />
      <path
         inkscape:connector-curvature="0"
         id="path10801"
         d="M 179.67708,168.52961 135.74396,156.75777"
         style="opacity:1;fill:none;fill-opacity:1;stroke:#00ff00;stroke-width:0.2;stroke-linecap:round;stroke-linejoin:bevel;stroke-miterlimit:4;stroke-dasharray:none;stroke-dashoffset:0;stroke-opacity:1;paint-order:markers fill stroke" />
      <path
         inkscape:connector-curvature="0"
         id="path10803"
         d="M 172.88061,156.75777 H 135.74396"
         style="opacity:1;fill:none;fill-opacity:1;stroke:#00ff00;stroke-width:0.2;stroke-linecap:round;stroke-linejoin:bevel;stroke-miterlimit:4;stroke-dasharray:none;stroke-dashoffset:0;stroke-opacity:1;paint-order:markers fill stroke" />
      <path
         inkscape:connector-curvature="0"
         id="path10805"
         d="m 161.10876,149.96129 -25.3648,6.79648"
         style="opacity:1;fill:none;fill-opacity:1;stroke:#00ff00;stroke-width:0.2;stroke-linecap:round;stroke-linejoin:bevel;stroke-miterlimit:4;stroke-dasharray:none;stroke-dashoffset:0;stroke-opacity:1;paint-order:markers fill stroke" />
      <path
         inkscape:connector-curvature="0"
         id="path10807"
         d="M 147.51581,200.69089 135.74396,156.75777"
         style="opacity:1;fill:none;fill-opacity:1;stroke:#00ff00;stroke-width:0.2;stroke-linecap:round;stroke-linejoin:bevel;stroke-miterlimit:4;stroke-dasharray:none;stroke-dashoffset:0;stroke-opacity:1;paint-order:markers fill stroke" />
      <path
         inkscape:connector-curvature="0"
         id="path10809"
         d="m 135.74397,193.89441 -1e-5,-37.13664"
         style="opacity:1;fill:none;fill-opacity:1;stroke:#00ff00;stroke-width:0.2;stroke-linecap:round;stroke-linejoin:bevel;stroke-miterlimit:4;stroke-dasharray:none;stroke-dashoffset:0;stroke-opacity:1;paint-order:markers fill stroke" />
      <path
         inkscape:connector-curvature="0"
         id="path10811"
         d="m 128.94749,182.12257 6.79647,-25.3648"
         style="opacity:1;fill:none;fill-opacity:1;stroke:#00ff00;stroke-width:0.2;stroke-linecap:round;stroke-linejoin:bevel;stroke-miterlimit:4;stroke-dasharray:none;stroke-dashoffset:0;stroke-opacity:1;paint-order:markers fill stroke" />
    </g>
    <g
       style="stroke:#00ff00"
       id="g10873"
       transform="matrix(0.5,0.8660254,0.8660254,-0.5,-41.999978,107.35269)">
      <path
         style="opacity:1;fill:none;fill-opacity:1;stroke:#00ff00;stroke-width:0.2;stroke-linecap:round;stroke-linejoin:bevel;stroke-miterlimit:4;stroke-dasharray:none;stroke-dashoffset:0;stroke-opacity:1;paint-order:markers fill stroke"
         d="m 135.74396,156.75777 37.13665,37.13664"
         id="path10855"
         inkscape:connector-curvature="0" />
      <path
         style="opacity:1;fill:none;fill-opacity:1;stroke:#00ff00;stroke-width:0.2;stroke-linecap:round;stroke-linejoin:bevel;stroke-miterlimit:4;stroke-dasharray:none;stroke-dashoffset:0;stroke-opacity:1;paint-order:markers fill stroke"
         d="m 161.10876,200.69089 -25.3648,-43.93312"
         id="path10857"
         inkscape:connector-curvature="0" />
      <path
         style="opacity:1;fill:none;fill-opacity:1;stroke:#00ff00;stroke-width:0.2;stroke-linecap:round;stroke-linejoin:bevel;stroke-miterlimit:4;stroke-dasharray:none;stroke-dashoffset:0;stroke-opacity:1;paint-order:markers fill stroke"
         d="m 179.67708,182.12257 -43.93312,-25.3648"
         id="path10859"
         inkscape:connector-curvature="0" />
      <path
         style="opacity:1;fill:none;fill-opacity:1;stroke:#00ff00;stroke-width:0.2;stroke-linecap:round;stroke-linejoin:bevel;stroke-miterlimit:4;stroke-dasharray:none;stroke-dashoffset:0;stroke-opacity:1;paint-order:markers fill stroke"
         d="M 179.67708,168.52961 135.74396,156.75777"
         id="path10861"
         inkscape:connector-curvature="0" />
      <path
         style="opacity:1;fill:none;fill-opacity:1;stroke:#00ff00;stroke-width:0.2;stroke-linecap:round;stroke-linejoin:bevel;stroke-miterlimit:4;stroke-dasharray:none;stroke-dashoffset:0;stroke-opacity:1;paint-order:markers fill stroke"
         d="M 172.88061,156.75777 H 135.74396"
         id="path10863"
         inkscape:connector-curvature="0" />
      <path
         style="opacity:1;fill:none;fill-opacity:1;stroke:#00ff00;stroke-width:0.2;stroke-linecap:round;stroke-linejoin:bevel;stroke-miterlimit:4;stroke-dasharray:none;stroke-dashoffset:0;stroke-opacity:1;paint-order:markers fill stroke"
         d="m 161.10876,149.96129 -25.3648,6.79648"
         id="path10865"
         inkscape:connector-curvature="0" />
      <path
         style="opacity:1;fill:none;fill-opacity:1;stroke:#00ff00;stroke-width:0.2;stroke-linecap:round;stroke-linejoin:bevel;stroke-miterlimit:4;stroke-dasharray:none;stroke-dashoffset:0;stroke-opacity:1;paint-order:markers fill stroke"
         d="M 147.51581,200.69089 135.74396,156.75777"
         id="path10867"
         inkscape:connector-curvature="0" />
      <path
         style="opacity:1;fill:none;fill-opacity:1;stroke:#00ff00;stroke-width:0.2;stroke-linecap:round;stroke-linejoin:bevel;stroke-miterlimit:4;stroke-dasharray:none;stroke-dashoffset:0;stroke-opacity:1;paint-order:markers fill stroke"
         d="m 135.74397,193.89441 -1e-5,-37.13664"
         id="path10869"
         inkscape:connector-curvature="0" />
      <path
         style="opacity:1;fill:none;fill-opacity:1;stroke:#00ff00;stroke-width:0.2;stroke-linecap:round;stroke-linejoin:bevel;stroke-miterlimit:4;stroke-dasharray:none;stroke-dashoffset:0;stroke-opacity:1;paint-order:markers fill stroke"
         d="m 128.94749,182.12257 6.79647,-25.3648"
         id="path10871"
         inkscape:connector-curvature="0" />
    </g>
    <path
       style="opacity:1;fill:none;fill-opacity:1;stroke:#00ff00;stroke-width:0.2;stroke-linecap:round;stroke-linejoin:bevel;stroke-miterlimit:4;stroke-dasharray:none;stroke-dashoffset:0;stroke-opacity:1;paint-order:markers fill stroke"
       d="m 205.56157,134.76001 -11.77208,-6.7968 -13.59295,2e-5"
       id="path11740"
       inkscape:connector-curvature="0"
       sodipodi:nodetypes="ccc" />
    <g
       style="stroke:#00ff00"
       transform="matrix(-0.5,0.8660254,0.8660254,0.5,112.3124,-67.973345)"
       id="g10893">
      <path
         inkscape:connector-curvature="0"
         id="path10875"
         d="m 135.74396,156.75777 37.13665,37.13664"
         style="opacity:1;fill:none;fill-opacity:1;stroke:#00ff00;stroke-width:0.2;stroke-linecap:round;stroke-linejoin:bevel;stroke-miterlimit:4;stroke-dasharray:none;stroke-dashoffset:0;stroke-opacity:1;paint-order:markers fill stroke" />
      <path
         inkscape:connector-curvature="0"
         id="path10877"
         d="m 161.10876,200.69089 -25.3648,-43.93312"
         style="opacity:1;fill:none;fill-opacity:1;stroke:#00ff00;stroke-width:0.2;stroke-linecap:round;stroke-linejoin:bevel;stroke-miterlimit:4;stroke-dasharray:none;stroke-dashoffset:0;stroke-opacity:1;paint-order:markers fill stroke" />
      <path
         inkscape:connector-curvature="0"
         id="path10879"
         d="m 179.67708,182.12257 -43.93312,-25.3648"
         style="opacity:1;fill:none;fill-opacity:1;stroke:#00ff00;stroke-width:0.2;stroke-linecap:round;stroke-linejoin:bevel;stroke-miterlimit:4;stroke-dasharray:none;stroke-dashoffset:0;stroke-opacity:1;paint-order:markers fill stroke" />
      <path
         inkscape:connector-curvature="0"
         id="path10881"
         d="M 179.67708,168.52961 135.74396,156.75777"
         style="opacity:1;fill:none;fill-opacity:1;stroke:#00ff00;stroke-width:0.2;stroke-linecap:round;stroke-linejoin:bevel;stroke-miterlimit:4;stroke-dasharray:none;stroke-dashoffset:0;stroke-opacity:1;paint-order:markers fill stroke" />
      <path
         inkscape:connector-curvature="0"
         id="path10883"
         d="M 172.88061,156.75777 H 135.74396"
         style="opacity:1;fill:none;fill-opacity:1;stroke:#00ff00;stroke-width:0.2;stroke-linecap:round;stroke-linejoin:bevel;stroke-miterlimit:4;stroke-dasharray:none;stroke-dashoffset:0;stroke-opacity:1;paint-order:markers fill stroke" />
      <path
         inkscape:connector-curvature="0"
         id="path10885"
         d="m 161.10876,149.96129 -25.3648,6.79648"
         style="opacity:1;fill:none;fill-opacity:1;stroke:#00ff00;stroke-width:0.2;stroke-linecap:round;stroke-linejoin:bevel;stroke-miterlimit:4;stroke-dasharray:none;stroke-dashoffset:0;stroke-opacity:1;paint-order:markers fill stroke" />
      <path
         inkscape:connector-curvature="0"
         id="path10887"
         d="M 147.51581,200.69089 135.74396,156.75777"
         style="opacity:1;fill:none;fill-opacity:1;stroke:#00ff00;stroke-width:0.2;stroke-linecap:round;stroke-linejoin:bevel;stroke-miterlimit:4;stroke-dasharray:none;stroke-dashoffset:0;stroke-opacity:1;paint-order:markers fill stroke" />
      <path
         inkscape:connector-curvature="0"
         id="path10889"
         d="m 135.74397,193.89441 -1e-5,-37.13664"
         style="opacity:1;fill:none;fill-opacity:1;stroke:#00ff00;stroke-width:0.2;stroke-linecap:round;stroke-linejoin:bevel;stroke-miterlimit:4;stroke-dasharray:none;stroke-dashoffset:0;stroke-opacity:1;paint-order:markers fill stroke" />
      <path
         inkscape:connector-curvature="0"
         id="path10891"
         d="m 128.94749,182.12257 6.79647,-25.3648"
         style="opacity:1;fill:none;fill-opacity:1;stroke:#00ff00;stroke-width:0.2;stroke-linecap:round;stroke-linejoin:bevel;stroke-miterlimit:4;stroke-dasharray:none;stroke-dashoffset:0;stroke-opacity:1;paint-order:markers fill stroke" />
    </g>
    <g
       style="stroke:#00ff00"
       transform="matrix(-0.8660254,-0.5,-0.5,0.8660254,408.29447,78.647397)"
       id="g10933">
      <path
         inkscape:connector-curvature="0"
         id="path10915"
         d="m 135.74396,156.75777 37.13665,37.13664"
         style="opacity:1;fill:none;fill-opacity:1;stroke:#00ff00;stroke-width:0.2;stroke-linecap:round;stroke-linejoin:bevel;stroke-miterlimit:4;stroke-dasharray:none;stroke-dashoffset:0;stroke-opacity:1;paint-order:markers fill stroke" />
      <path
         inkscape:connector-curvature="0"
         id="path10917"
         d="m 161.10876,200.69089 -25.3648,-43.93312"
         style="opacity:1;fill:none;fill-opacity:1;stroke:#00ff00;stroke-width:0.2;stroke-linecap:round;stroke-linejoin:bevel;stroke-miterlimit:4;stroke-dasharray:none;stroke-dashoffset:0;stroke-opacity:1;paint-order:markers fill stroke" />
      <path
         inkscape:connector-curvature="0"
         id="path10919"
         d="m 179.67708,182.12257 -43.93312,-25.3648"
         style="opacity:1;fill:none;fill-opacity:1;stroke:#00ff00;stroke-width:0.2;stroke-linecap:round;stroke-linejoin:bevel;stroke-miterlimit:4;stroke-dasharray:none;stroke-dashoffset:0;stroke-opacity:1;paint-order:markers fill stroke" />
      <path
         inkscape:connector-curvature="0"
         id="path10921"
         d="M 179.67708,168.52961 135.74396,156.75777"
         style="opacity:1;fill:none;fill-opacity:1;stroke:#00ff00;stroke-width:0.2;stroke-linecap:round;stroke-linejoin:bevel;stroke-miterlimit:4;stroke-dasharray:none;stroke-dashoffset:0;stroke-opacity:1;paint-order:markers fill stroke" />
      <path
         inkscape:connector-curvature="0"
         id="path10923"
         d="M 172.88061,156.75777 H 135.74396"
         style="opacity:1;fill:none;fill-opacity:1;stroke:#00ff00;stroke-width:0.2;stroke-linecap:round;stroke-linejoin:bevel;stroke-miterlimit:4;stroke-dasharray:none;stroke-dashoffset:0;stroke-opacity:1;paint-order:markers fill stroke" />
      <path
         inkscape:connector-curvature="0"
         id="path10925"
         d="m 161.10876,149.96129 -25.3648,6.79648"
         style="opacity:1;fill:none;fill-opacity:1;stroke:#00ff00;stroke-width:0.2;stroke-linecap:round;stroke-linejoin:bevel;stroke-miterlimit:4;stroke-dasharray:none;stroke-dashoffset:0;stroke-opacity:1;paint-order:markers fill stroke" />
      <path
         inkscape:connector-curvature="0"
         id="path10927"
         d="M 147.51581,200.69089 135.74396,156.75777"
         style="opacity:1;fill:none;fill-opacity:1;stroke:#00ff00;stroke-width:0.2;stroke-linecap:round;stroke-linejoin:bevel;stroke-miterlimit:4;stroke-dasharray:none;stroke-dashoffset:0;stroke-opacity:1;paint-order:markers fill stroke" />
      <path
         inkscape:connector-curvature="0"
         id="path10929"
         d="m 135.74397,193.89441 -1e-5,-37.13664"
         style="opacity:1;fill:none;fill-opacity:1;stroke:#00ff00;stroke-width:0.2;stroke-linecap:round;stroke-linejoin:bevel;stroke-miterlimit:4;stroke-dasharray:none;stroke-dashoffset:0;stroke-opacity:1;paint-order:markers fill stroke" />
      <path
         inkscape:connector-curvature="0"
         id="path10931"
         d="m 128.94749,182.12257 6.79647,-25.3648"
         style="opacity:1;fill:none;fill-opacity:1;stroke:#00ff00;stroke-width:0.2;stroke-linecap:round;stroke-linejoin:bevel;stroke-miterlimit:4;stroke-dasharray:none;stroke-dashoffset:0;stroke-opacity:1;paint-order:markers fill stroke" />
    </g>
    <g
       style="stroke:#00ff00"
       id="g10953"
       transform="matrix(0.5,-0.8660254,-0.8660254,-0.5,261.67388,374.62962)">
      <path
         style="opacity:1;fill:none;fill-opacity:1;stroke:#00ff00;stroke-width:0.2;stroke-linecap:round;stroke-linejoin:bevel;stroke-miterlimit:4;stroke-dasharray:none;stroke-dashoffset:0;stroke-opacity:1;paint-order:markers fill stroke"
         d="m 135.74396,156.75777 37.13665,37.13664"
         id="path10935"
         inkscape:connector-curvature="0" />
      <path
         style="opacity:1;fill:none;fill-opacity:1;stroke:#00ff00;stroke-width:0.2;stroke-linecap:round;stroke-linejoin:bevel;stroke-miterlimit:4;stroke-dasharray:none;stroke-dashoffset:0;stroke-opacity:1;paint-order:markers fill stroke"
         d="m 161.10876,200.69089 -25.3648,-43.93312"
         id="path10937"
         inkscape:connector-curvature="0" />
      <path
         style="opacity:1;fill:none;fill-opacity:1;stroke:#00ff00;stroke-width:0.2;stroke-linecap:round;stroke-linejoin:bevel;stroke-miterlimit:4;stroke-dasharray:none;stroke-dashoffset:0;stroke-opacity:1;paint-order:markers fill stroke"
         d="m 179.67708,182.12257 -43.93312,-25.3648"
         id="path10939"
         inkscape:connector-curvature="0" />
      <path
         style="opacity:1;fill:none;fill-opacity:1;stroke:#00ff00;stroke-width:0.2;stroke-linecap:round;stroke-linejoin:bevel;stroke-miterlimit:4;stroke-dasharray:none;stroke-dashoffset:0;stroke-opacity:1;paint-order:markers fill stroke"
         d="M 179.67708,168.52961 135.74396,156.75777"
         id="path10941"
         inkscape:connector-curvature="0" />
      <path
         style="opacity:1;fill:none;fill-opacity:1;stroke:#00ff00;stroke-width:0.2;stroke-linecap:round;stroke-linejoin:bevel;stroke-miterlimit:4;stroke-dasharray:none;stroke-dashoffset:0;stroke-opacity:1;paint-order:markers fill stroke"
         d="M 172.88061,156.75777 H 135.74396"
         id="path10943"
         inkscape:connector-curvature="0" />
      <path
         style="opacity:1;fill:none;fill-opacity:1;stroke:#00ff00;stroke-width:0.2;stroke-linecap:round;stroke-linejoin:bevel;stroke-miterlimit:4;stroke-dasharray:none;stroke-dashoffset:0;stroke-opacity:1;paint-order:markers fill stroke"
         d="m 161.10876,149.96129 -25.3648,6.79648"
         id="path10945"
         inkscape:connector-curvature="0" />
      <path
         style="opacity:1;fill:none;fill-opacity:1;stroke:#00ff00;stroke-width:0.2;stroke-linecap:round;stroke-linejoin:bevel;stroke-miterlimit:4;stroke-dasharray:none;stroke-dashoffset:0;stroke-opacity:1;paint-order:markers fill stroke"
         d="M 147.51581,200.69089 135.74396,156.75777"
         id="path10947"
         inkscape:connector-curvature="0" />
      <path
         style="opacity:1;fill:none;fill-opacity:1;stroke:#00ff00;stroke-width:0.2;stroke-linecap:round;stroke-linejoin:bevel;stroke-miterlimit:4;stroke-dasharray:none;stroke-dashoffset:0;stroke-opacity:1;paint-order:markers fill stroke"
         d="m 135.74397,193.89441 -1e-5,-37.13664"
         id="path10949"
         inkscape:connector-curvature="0" />
      <path
         style="opacity:1;fill:none;fill-opacity:1;stroke:#00ff00;stroke-width:0.2;stroke-linecap:round;stroke-linejoin:bevel;stroke-miterlimit:4;stroke-dasharray:none;stroke-dashoffset:0;stroke-opacity:1;paint-order:markers fill stroke"
         d="m 128.94749,182.12257 6.79647,-25.3648"
         id="path10951"
         inkscape:connector-curvature="0" />
    </g>
    <g
       id="g6474-63-3-4"
       transform="matrix(0.00881199,0,0,0.00881199,203.30571,132.6323)"
       class=""
       style="fill:#008000;stroke:#00ff00">
      <path
         id="path6472-69-4-4"
         d="m 256,54.99 c -27,0 -46.418,14.287 -57.633,32.23 -10.03,16.047 -14.203,34.66 -15.017,50.962 -30.608,15.135 -64.515,30.394 -91.815,45.994 -14.32,8.183 -26.805,16.414 -36.203,25.26 C 45.934,218.28 39,228.24 39,239.99 c 0,5 2.44,9.075 5.19,12.065 2.754,2.99 6.054,5.312 9.812,7.48 7.515,4.336 16.99,7.95 27.412,11.076 15.483,4.646 32.823,8.1 47.9,9.577 -14.996,25.84 -34.953,49.574 -52.447,72.315 C 56.65,378.785 39,403.99 39,431.99 c 0,4 -0.044,7.123 0.31,10.26 0.355,3.137 1.256,7.053 4.41,10.156 3.155,3.104 7.017,3.938 10.163,4.28 3.146,0.345 6.315,0.304 10.38,0.304 h 111.542 c 8.097,0 14.026,0.492 20.125,-3.43 6.1,-3.92 8.324,-9.275 12.67,-17.275 l 0.088,-0.16 0.08,-0.166 c 0,0 9.723,-19.77 21.324,-39.388 5.8,-9.808 12.097,-19.576 17.574,-26.498 2.74,-3.46 5.304,-6.204 7.15,-7.754 0.564,-0.472 0.82,-0.56 1.184,-0.76 0.363,0.2 0.62,0.288 1.184,0.76 1.846,1.55 4.41,4.294 7.15,7.754 5.477,6.922 11.774,16.69 17.574,26.498 11.6,19.618 21.324,39.387 21.324,39.387 l 0.08,0.165 0.088,0.16 c 4.346,8 6.55,13.323 12.61,17.254 6.058,3.93 11.974,3.45 19.957,3.45 H 448 c 4,0 7.12,0.043 10.244,-0.304 3.123,-0.347 6.998,-1.21 10.12,-4.332 3.12,-3.122 3.984,-6.997 4.33,-10.12 0.348,-3.122 0.306,-6.244 0.306,-10.244 0,-28 -17.65,-53.205 -37.867,-79.488 -17.493,-22.74 -37.45,-46.474 -52.447,-72.315 15.077,-1.478 32.417,-4.93 47.9,-9.576 10.422,-3.125 19.897,-6.74 27.412,-11.075 3.758,-2.168 7.058,-4.49 9.81,-7.48 2.753,-2.99 5.192,-7.065 5.192,-12.065 0,-11.75 -6.934,-21.71 -16.332,-30.554 -9.398,-8.846 -21.883,-17.077 -36.203,-25.26 -27.3,-15.6 -61.207,-30.86 -91.815,-45.994 -0.814,-16.3 -4.988,-34.915 -15.017,-50.96 C 302.418,69.276 283,54.99 256,54.99 Z"
         inkscape:connector-curvature="0"
         style="fill:#008000;fill-opacity:1;stroke:#00ff00" />
    </g>
    <g
       style="stroke:#00ff00;fill:#ececec"
       id="g10913"
       transform="matrix(-0.8660254,0.5,0.5,0.8660254,232.96844,-75.664987)">
      <path
         style="opacity:1;fill:#ececec;fill-opacity:1;stroke:#00ff00;stroke-width:0.2;stroke-linecap:round;stroke-linejoin:bevel;stroke-miterlimit:4;stroke-dasharray:none;stroke-dashoffset:0;stroke-opacity:1;paint-order:markers fill stroke"
         d="m 135.74396,156.75777 37.13665,37.13664"
         id="path10895"
         inkscape:connector-curvature="0" />
      <path
         style="opacity:1;fill:#ececec;fill-opacity:1;stroke:#00ff00;stroke-width:0.2;stroke-linecap:round;stroke-linejoin:bevel;stroke-miterlimit:4;stroke-dasharray:none;stroke-dashoffset:0;stroke-opacity:1;paint-order:markers fill stroke"
         d="m 161.10876,200.69089 -25.3648,-43.93312"
         id="path10897"
         inkscape:connector-curvature="0" />
      <path
         style="opacity:1;fill:#ececec;fill-opacity:1;stroke:#00ff00;stroke-width:0.2;stroke-linecap:round;stroke-linejoin:bevel;stroke-miterlimit:4;stroke-dasharray:none;stroke-dashoffset:0;stroke-opacity:1;paint-order:markers fill stroke"
         d="m 179.67708,182.12257 -43.93312,-25.3648"
         id="path10899"
         inkscape:connector-curvature="0" />
      <path
         style="opacity:1;fill:#ececec;fill-opacity:1;stroke:#00ff00;stroke-width:0.2;stroke-linecap:round;stroke-linejoin:bevel;stroke-miterlimit:4;stroke-dasharray:none;stroke-dashoffset:0;stroke-opacity:1;paint-order:markers fill stroke"
         d="M 179.67708,168.52961 135.74396,156.75777"
         id="path10901"
         inkscape:connector-curvature="0" />
      <path
         style="opacity:1;fill:#ececec;fill-opacity:1;stroke:#00ff00;stroke-width:0.2;stroke-linecap:round;stroke-linejoin:bevel;stroke-miterlimit:4;stroke-dasharray:none;stroke-dashoffset:0;stroke-opacity:1;paint-order:markers fill stroke"
         d="M 172.88061,156.75777 H 135.74396"
         id="path10903"
         inkscape:connector-curvature="0" />
      <path
         style="opacity:1;fill:#ececec;fill-opacity:1;stroke:#00ff00;stroke-width:0.2;stroke-linecap:round;stroke-linejoin:bevel;stroke-miterlimit:4;stroke-dasharray:none;stroke-dashoffset:0;stroke-opacity:1;paint-order:markers fill stroke"
         d="m 161.10876,149.96129 -25.3648,6.79648"
         id="path10905"
         inkscape:connector-curvature="0" />
      <path
         style="opacity:1;fill:#ececec;fill-opacity:1;stroke:#00ff00;stroke-width:0.2;stroke-linecap:round;stroke-linejoin:bevel;stroke-miterlimit:4;stroke-dasharray:none;stroke-dashoffset:0;stroke-opacity:1;paint-order:markers fill stroke"
         d="M 147.51581,200.69089 135.74396,156.75777"
         id="path10907"
         inkscape:connector-curvature="0" />
      <path
         style="opacity:1;fill:#ececec;fill-opacity:1;stroke:#00ff00;stroke-width:0.2;stroke-linecap:round;stroke-linejoin:bevel;stroke-miterlimit:4;stroke-dasharray:none;stroke-dashoffset:0;stroke-opacity:1;paint-order:markers fill stroke"
         d="m 135.74397,193.89441 -1e-5,-37.13664"
         id="path10909"
         inkscape:connector-curvature="0" />
      <path
         style="opacity:1;fill:#ececec;fill-opacity:1;stroke:#00ff00;stroke-width:0.2;stroke-linecap:round;stroke-linejoin:bevel;stroke-miterlimit:4;stroke-dasharray:none;stroke-dashoffset:0;stroke-opacity:1;paint-order:markers fill stroke"
         d="m 128.94749,182.12257 6.79647,-25.3648"
         id="path10911"
         inkscape:connector-curvature="0" />
    </g>
    <g
       style="fill:#008000;stroke:#00ff00"
       class=""
       transform="matrix(0.00881199,0,0,0.00881199,210.10928,144.4913)"
       id="g11116">
      <path
         style="fill:#008000;fill-opacity:1;stroke:#00ff00"
         inkscape:connector-curvature="0"
         d="m 256,54.99 c -27,0 -46.418,14.287 -57.633,32.23 -10.03,16.047 -14.203,34.66 -15.017,50.962 -30.608,15.135 -64.515,30.394 -91.815,45.994 -14.32,8.183 -26.805,16.414 -36.203,25.26 C 45.934,218.28 39,228.24 39,239.99 c 0,5 2.44,9.075 5.19,12.065 2.754,2.99 6.054,5.312 9.812,7.48 7.515,4.336 16.99,7.95 27.412,11.076 15.483,4.646 32.823,8.1 47.9,9.577 -14.996,25.84 -34.953,49.574 -52.447,72.315 C 56.65,378.785 39,403.99 39,431.99 c 0,4 -0.044,7.123 0.31,10.26 0.355,3.137 1.256,7.053 4.41,10.156 3.155,3.104 7.017,3.938 10.163,4.28 3.146,0.345 6.315,0.304 10.38,0.304 h 111.542 c 8.097,0 14.026,0.492 20.125,-3.43 6.1,-3.92 8.324,-9.275 12.67,-17.275 l 0.088,-0.16 0.08,-0.166 c 0,0 9.723,-19.77 21.324,-39.388 5.8,-9.808 12.097,-19.576 17.574,-26.498 2.74,-3.46 5.304,-6.204 7.15,-7.754 0.564,-0.472 0.82,-0.56 1.184,-0.76 0.363,0.2 0.62,0.288 1.184,0.76 1.846,1.55 4.41,4.294 7.15,7.754 5.477,6.922 11.774,16.69 17.574,26.498 11.6,19.618 21.324,39.387 21.324,39.387 l 0.08,0.165 0.088,0.16 c 4.346,8 6.55,13.323 12.61,17.254 6.058,3.93 11.974,3.45 19.957,3.45 H 448 c 4,0 7.12,0.043 10.244,-0.304 3.123,-0.347 6.998,-1.21 10.12,-4.332 3.12,-3.122 3.984,-6.997 4.33,-10.12 0.348,-3.122 0.306,-6.244 0.306,-10.244 0,-28 -17.65,-53.205 -37.867,-79.488 -17.493,-22.74 -37.45,-46.474 -52.447,-72.315 15.077,-1.478 32.417,-4.93 47.9,-9.576 10.422,-3.125 19.897,-6.74 27.412,-11.075 3.758,-2.168 7.058,-4.49 9.81,-7.48 2.753,-2.99 5.192,-7.065 5.192,-12.065 0,-11.75 -6.934,-21.71 -16.332,-30.554 -9.398,-8.846 -21.883,-17.077 -36.203,-25.26 -27.3,-15.6 -61.207,-30.86 -91.815,-45.994 -0.814,-16.3 -4.988,-34.915 -15.017,-50.96 C 302.418,69.276 283,54.99 256,54.99 Z"
         id="path11114" />
    </g>
    <g
       id="g11120"
       transform="matrix(0.00881199,0,0,0.00881199,210.10218,157.46793)"
       class=""
       style="fill:#008000;stroke:#00ff00">
      <path
         id="path11118"
         d="m 256,54.99 c -27,0 -46.418,14.287 -57.633,32.23 -10.03,16.047 -14.203,34.66 -15.017,50.962 -30.608,15.135 -64.515,30.394 -91.815,45.994 -14.32,8.183 -26.805,16.414 -36.203,25.26 C 45.934,218.28 39,228.24 39,239.99 c 0,5 2.44,9.075 5.19,12.065 2.754,2.99 6.054,5.312 9.812,7.48 7.515,4.336 16.99,7.95 27.412,11.076 15.483,4.646 32.823,8.1 47.9,9.577 -14.996,25.84 -34.953,49.574 -52.447,72.315 C 56.65,378.785 39,403.99 39,431.99 c 0,4 -0.044,7.123 0.31,10.26 0.355,3.137 1.256,7.053 4.41,10.156 3.155,3.104 7.017,3.938 10.163,4.28 3.146,0.345 6.315,0.304 10.38,0.304 h 111.542 c 8.097,0 14.026,0.492 20.125,-3.43 6.1,-3.92 8.324,-9.275 12.67,-17.275 l 0.088,-0.16 0.08,-0.166 c 0,0 9.723,-19.77 21.324,-39.388 5.8,-9.808 12.097,-19.576 17.574,-26.498 2.74,-3.46 5.304,-6.204 7.15,-7.754 0.564,-0.472 0.82,-0.56 1.184,-0.76 0.363,0.2 0.62,0.288 1.184,0.76 1.846,1.55 4.41,4.294 7.15,7.754 5.477,6.922 11.774,16.69 17.574,26.498 11.6,19.618 21.324,39.387 21.324,39.387 l 0.08,0.165 0.088,0.16 c 4.346,8 6.55,13.323 12.61,17.254 6.058,3.93 11.974,3.45 19.957,3.45 H 448 c 4,0 7.12,0.043 10.244,-0.304 3.123,-0.347 6.998,-1.21 10.12,-4.332 3.12,-3.122 3.984,-6.997 4.33,-10.12 0.348,-3.122 0.306,-6.244 0.306,-10.244 0,-28 -17.65,-53.205 -37.867,-79.488 -17.493,-22.74 -37.45,-46.474 -52.447,-72.315 15.077,-1.478 32.417,-4.93 47.9,-9.576 10.422,-3.125 19.897,-6.74 27.412,-11.075 3.758,-2.168 7.058,-4.49 9.81,-7.48 2.753,-2.99 5.192,-7.065 5.192,-12.065 0,-11.75 -6.934,-21.71 -16.332,-30.554 -9.398,-8.846 -21.883,-17.077 -36.203,-25.26 -27.3,-15.6 -61.207,-30.86 -91.815,-45.994 -0.814,-16.3 -4.988,-34.915 -15.017,-50.96 C 302.418,69.276 283,54.99 256,54.99 Z"
         inkscape:connector-curvature="0"
         style="fill:#008000;fill-opacity:1;stroke:#00ff00" />
    </g>
    <g
       style="fill:#008000"
       class=""
       transform="matrix(0.00881199,0,0,0.00881199,203.3931,169.70491)"
       id="g11124">
      <path
         style="fill:#008000;fill-opacity:1"
         inkscape:connector-curvature="0"
         d="m 256,54.99 c -27,0 -46.418,14.287 -57.633,32.23 -10.03,16.047 -14.203,34.66 -15.017,50.962 -30.608,15.135 -64.515,30.394 -91.815,45.994 -14.32,8.183 -26.805,16.414 -36.203,25.26 C 45.934,218.28 39,228.24 39,239.99 c 0,5 2.44,9.075 5.19,12.065 2.754,2.99 6.054,5.312 9.812,7.48 7.515,4.336 16.99,7.95 27.412,11.076 15.483,4.646 32.823,8.1 47.9,9.577 -14.996,25.84 -34.953,49.574 -52.447,72.315 C 56.65,378.785 39,403.99 39,431.99 c 0,4 -0.044,7.123 0.31,10.26 0.355,3.137 1.256,7.053 4.41,10.156 3.155,3.104 7.017,3.938 10.163,4.28 3.146,0.345 6.315,0.304 10.38,0.304 h 111.542 c 8.097,0 14.026,0.492 20.125,-3.43 6.1,-3.92 8.324,-9.275 12.67,-17.275 l 0.088,-0.16 0.08,-0.166 c 0,0 9.723,-19.77 21.324,-39.388 5.8,-9.808 12.097,-19.576 17.574,-26.498 2.74,-3.46 5.304,-6.204 7.15,-7.754 0.564,-0.472 0.82,-0.56 1.184,-0.76 0.363,0.2 0.62,0.288 1.184,0.76 1.846,1.55 4.41,4.294 7.15,7.754 5.477,6.922 11.774,16.69 17.574,26.498 11.6,19.618 21.324,39.387 21.324,39.387 l 0.08,0.165 0.088,0.16 c 4.346,8 6.55,13.323 12.61,17.254 6.058,3.93 11.974,3.45 19.957,3.45 H 448 c 4,0 7.12,0.043 10.244,-0.304 3.123,-0.347 6.998,-1.21 10.12,-4.332 3.12,-3.122 3.984,-6.997 4.33,-10.12 0.348,-3.122 0.306,-6.244 0.306,-10.244 0,-28 -17.65,-53.205 -37.867,-79.488 -17.493,-22.74 -37.45,-46.474 -52.447,-72.315 15.077,-1.478 32.417,-4.93 47.9,-9.576 10.422,-3.125 19.897,-6.74 27.412,-11.075 3.758,-2.168 7.058,-4.49 9.81,-7.48 2.753,-2.99 5.192,-7.065 5.192,-12.065 0,-11.75 -6.934,-21.71 -16.332,-30.554 -9.398,-8.846 -21.883,-17.077 -36.203,-25.26 -27.3,-15.6 -61.207,-30.86 -91.815,-45.994 -0.814,-16.3 -4.988,-34.915 -15.017,-50.96 C 302.418,69.276 283,54.99 256,54.99 Z"
         id="path11122" />
    </g>
    <g
       id="g11128"
       transform="matrix(0.00881199,0,0,0.00881199,191.53386,176.03625)"
       class=""
       style="fill:#008000;stroke:#00ff00">
      <path
         id="path11126"
         d="m 256,54.99 c -27,0 -46.418,14.287 -57.633,32.23 -10.03,16.047 -14.203,34.66 -15.017,50.962 -30.608,15.135 -64.515,30.394 -91.815,45.994 -14.32,8.183 -26.805,16.414 -36.203,25.26 C 45.934,218.28 39,228.24 39,239.99 c 0,5 2.44,9.075 5.19,12.065 2.754,2.99 6.054,5.312 9.812,7.48 7.515,4.336 16.99,7.95 27.412,11.076 15.483,4.646 32.823,8.1 47.9,9.577 -14.996,25.84 -34.953,49.574 -52.447,72.315 C 56.65,378.785 39,403.99 39,431.99 c 0,4 -0.044,7.123 0.31,10.26 0.355,3.137 1.256,7.053 4.41,10.156 3.155,3.104 7.017,3.938 10.163,4.28 3.146,0.345 6.315,0.304 10.38,0.304 h 111.542 c 8.097,0 14.026,0.492 20.125,-3.43 6.1,-3.92 8.324,-9.275 12.67,-17.275 l 0.088,-0.16 0.08,-0.166 c 0,0 9.723,-19.77 21.324,-39.388 5.8,-9.808 12.097,-19.576 17.574,-26.498 2.74,-3.46 5.304,-6.204 7.15,-7.754 0.564,-0.472 0.82,-0.56 1.184,-0.76 0.363,0.2 0.62,0.288 1.184,0.76 1.846,1.55 4.41,4.294 7.15,7.754 5.477,6.922 11.774,16.69 17.574,26.498 11.6,19.618 21.324,39.387 21.324,39.387 l 0.08,0.165 0.088,0.16 c 4.346,8 6.55,13.323 12.61,17.254 6.058,3.93 11.974,3.45 19.957,3.45 H 448 c 4,0 7.12,0.043 10.244,-0.304 3.123,-0.347 6.998,-1.21 10.12,-4.332 3.12,-3.122 3.984,-6.997 4.33,-10.12 0.348,-3.122 0.306,-6.244 0.306,-10.244 0,-28 -17.65,-53.205 -37.867,-79.488 -17.493,-22.74 -37.45,-46.474 -52.447,-72.315 15.077,-1.478 32.417,-4.93 47.9,-9.576 10.422,-3.125 19.897,-6.74 27.412,-11.075 3.758,-2.168 7.058,-4.49 9.81,-7.48 2.753,-2.99 5.192,-7.065 5.192,-12.065 0,-11.75 -6.934,-21.71 -16.332,-30.554 -9.398,-8.846 -21.883,-17.077 -36.203,-25.26 -27.3,-15.6 -61.207,-30.86 -91.815,-45.994 -0.814,-16.3 -4.988,-34.915 -15.017,-50.96 C 302.418,69.276 283,54.99 256,54.99 Z"
         inkscape:connector-curvature="0"
         style="fill:#008000;fill-opacity:1;stroke:#00ff00" />
    </g>
    <g
       style="fill:#008000;stroke:#00ff00"
       class=""
       transform="matrix(0.00881199,0,0,0.00881199,177.94191,176.03625)"
       id="g11132">
      <path
         style="fill:#008000;fill-opacity:1;stroke:#00ff00"
         inkscape:connector-curvature="0"
         d="m 256,54.99 c -27,0 -46.418,14.287 -57.633,32.23 -10.03,16.047 -14.203,34.66 -15.017,50.962 -30.608,15.135 -64.515,30.394 -91.815,45.994 -14.32,8.183 -26.805,16.414 -36.203,25.26 C 45.934,218.28 39,228.24 39,239.99 c 0,5 2.44,9.075 5.19,12.065 2.754,2.99 6.054,5.312 9.812,7.48 7.515,4.336 16.99,7.95 27.412,11.076 15.483,4.646 32.823,8.1 47.9,9.577 -14.996,25.84 -34.953,49.574 -52.447,72.315 C 56.65,378.785 39,403.99 39,431.99 c 0,4 -0.044,7.123 0.31,10.26 0.355,3.137 1.256,7.053 4.41,10.156 3.155,3.104 7.017,3.938 10.163,4.28 3.146,0.345 6.315,0.304 10.38,0.304 h 111.542 c 8.097,0 14.026,0.492 20.125,-3.43 6.1,-3.92 8.324,-9.275 12.67,-17.275 l 0.088,-0.16 0.08,-0.166 c 0,0 9.723,-19.77 21.324,-39.388 5.8,-9.808 12.097,-19.576 17.574,-26.498 2.74,-3.46 5.304,-6.204 7.15,-7.754 0.564,-0.472 0.82,-0.56 1.184,-0.76 0.363,0.2 0.62,0.288 1.184,0.76 1.846,1.55 4.41,4.294 7.15,7.754 5.477,6.922 11.774,16.69 17.574,26.498 11.6,19.618 21.324,39.387 21.324,39.387 l 0.08,0.165 0.088,0.16 c 4.346,8 6.55,13.323 12.61,17.254 6.058,3.93 11.974,3.45 19.957,3.45 H 448 c 4,0 7.12,0.043 10.244,-0.304 3.123,-0.347 6.998,-1.21 10.12,-4.332 3.12,-3.122 3.984,-6.997 4.33,-10.12 0.348,-3.122 0.306,-6.244 0.306,-10.244 0,-28 -17.65,-53.205 -37.867,-79.488 -17.493,-22.74 -37.45,-46.474 -52.447,-72.315 15.077,-1.478 32.417,-4.93 47.9,-9.576 10.422,-3.125 19.897,-6.74 27.412,-11.075 3.758,-2.168 7.058,-4.49 9.81,-7.48 2.753,-2.99 5.192,-7.065 5.192,-12.065 0,-11.75 -6.934,-21.71 -16.332,-30.554 -9.398,-8.846 -21.883,-17.077 -36.203,-25.26 -27.3,-15.6 -61.207,-30.86 -91.815,-45.994 -0.814,-16.3 -4.988,-34.915 -15.017,-50.96 C 302.418,69.276 283,54.99 256,54.99 Z"
         id="path11130" />
    </g>
    <g
       id="g11136"
       transform="matrix(0.00881199,0,0,0.00881199,166.31914,169.79964)"
       class=""
       style="fill:#008000;stroke:#00ff00">
      <path
         id="path11134"
         d="m 256,54.99 c -27,0 -46.418,14.287 -57.633,32.23 -10.03,16.047 -14.203,34.66 -15.017,50.962 -30.608,15.135 -64.515,30.394 -91.815,45.994 -14.32,8.183 -26.805,16.414 -36.203,25.26 C 45.934,218.28 39,228.24 39,239.99 c 0,5 2.44,9.075 5.19,12.065 2.754,2.99 6.054,5.312 9.812,7.48 7.515,4.336 16.99,7.95 27.412,11.076 15.483,4.646 32.823,8.1 47.9,9.577 -14.996,25.84 -34.953,49.574 -52.447,72.315 C 56.65,378.785 39,403.99 39,431.99 c 0,4 -0.044,7.123 0.31,10.26 0.355,3.137 1.256,7.053 4.41,10.156 3.155,3.104 7.017,3.938 10.163,4.28 3.146,0.345 6.315,0.304 10.38,0.304 h 111.542 c 8.097,0 14.026,0.492 20.125,-3.43 6.1,-3.92 8.324,-9.275 12.67,-17.275 l 0.088,-0.16 0.08,-0.166 c 0,0 9.723,-19.77 21.324,-39.388 5.8,-9.808 12.097,-19.576 17.574,-26.498 2.74,-3.46 5.304,-6.204 7.15,-7.754 0.564,-0.472 0.82,-0.56 1.184,-0.76 0.363,0.2 0.62,0.288 1.184,0.76 1.846,1.55 4.41,4.294 7.15,7.754 5.477,6.922 11.774,16.69 17.574,26.498 11.6,19.618 21.324,39.387 21.324,39.387 l 0.08,0.165 0.088,0.16 c 4.346,8 6.55,13.323 12.61,17.254 6.058,3.93 11.974,3.45 19.957,3.45 H 448 c 4,0 7.12,0.043 10.244,-0.304 3.123,-0.347 6.998,-1.21 10.12,-4.332 3.12,-3.122 3.984,-6.997 4.33,-10.12 0.348,-3.122 0.306,-6.244 0.306,-10.244 0,-28 -17.65,-53.205 -37.867,-79.488 -17.493,-22.74 -37.45,-46.474 -52.447,-72.315 15.077,-1.478 32.417,-4.93 47.9,-9.576 10.422,-3.125 19.897,-6.74 27.412,-11.075 3.758,-2.168 7.058,-4.49 9.81,-7.48 2.753,-2.99 5.192,-7.065 5.192,-12.065 0,-11.75 -6.934,-21.71 -16.332,-30.554 -9.398,-8.846 -21.883,-17.077 -36.203,-25.26 -27.3,-15.6 -61.207,-30.86 -91.815,-45.994 -0.814,-16.3 -4.988,-34.915 -15.017,-50.96 C 302.418,69.276 283,54.99 256,54.99 Z"
         inkscape:connector-curvature="0"
         style="fill:#008000;fill-opacity:1;stroke:#00ff00" />
    </g>
    <g
       style="fill:#008000;stroke:#00ff00"
       class=""
       transform="matrix(0.00881199,0,0,0.00881199,159.51557,157.98788)"
       id="g11140">
      <path
         style="fill:#008000;fill-opacity:1;stroke:#00ff00"
         inkscape:connector-curvature="0"
         d="m 256,54.99 c -27,0 -46.418,14.287 -57.633,32.23 -10.03,16.047 -14.203,34.66 -15.017,50.962 -30.608,15.135 -64.515,30.394 -91.815,45.994 -14.32,8.183 -26.805,16.414 -36.203,25.26 C 45.934,218.28 39,228.24 39,239.99 c 0,5 2.44,9.075 5.19,12.065 2.754,2.99 6.054,5.312 9.812,7.48 7.515,4.336 16.99,7.95 27.412,11.076 15.483,4.646 32.823,8.1 47.9,9.577 -14.996,25.84 -34.953,49.574 -52.447,72.315 C 56.65,378.785 39,403.99 39,431.99 c 0,4 -0.044,7.123 0.31,10.26 0.355,3.137 1.256,7.053 4.41,10.156 3.155,3.104 7.017,3.938 10.163,4.28 3.146,0.345 6.315,0.304 10.38,0.304 h 111.542 c 8.097,0 14.026,0.492 20.125,-3.43 6.1,-3.92 8.324,-9.275 12.67,-17.275 l 0.088,-0.16 0.08,-0.166 c 0,0 9.723,-19.77 21.324,-39.388 5.8,-9.808 12.097,-19.576 17.574,-26.498 2.74,-3.46 5.304,-6.204 7.15,-7.754 0.564,-0.472 0.82,-0.56 1.184,-0.76 0.363,0.2 0.62,0.288 1.184,0.76 1.846,1.55 4.41,4.294 7.15,7.754 5.477,6.922 11.774,16.69 17.574,26.498 11.6,19.618 21.324,39.387 21.324,39.387 l 0.08,0.165 0.088,0.16 c 4.346,8 6.55,13.323 12.61,17.254 6.058,3.93 11.974,3.45 19.957,3.45 H 448 c 4,0 7.12,0.043 10.244,-0.304 3.123,-0.347 6.998,-1.21 10.12,-4.332 3.12,-3.122 3.984,-6.997 4.33,-10.12 0.348,-3.122 0.306,-6.244 0.306,-10.244 0,-28 -17.65,-53.205 -37.867,-79.488 -17.493,-22.74 -37.45,-46.474 -52.447,-72.315 15.077,-1.478 32.417,-4.93 47.9,-9.576 10.422,-3.125 19.897,-6.74 27.412,-11.075 3.758,-2.168 7.058,-4.49 9.81,-7.48 2.753,-2.99 5.192,-7.065 5.192,-12.065 0,-11.75 -6.934,-21.71 -16.332,-30.554 -9.398,-8.846 -21.883,-17.077 -36.203,-25.26 -27.3,-15.6 -61.207,-30.86 -91.815,-45.994 -0.814,-16.3 -4.988,-34.915 -15.017,-50.96 C 302.418,69.276 283,54.99 256,54.99 Z"
         id="path11138" />
    </g>
    <g
       id="g11144"
       transform="matrix(0.00881199,0,0,0.00881199,159.25313,144.41552)"
       class=""
       style="fill:#008000;stroke:#00ff00">
      <path
         id="path11142"
         d="m 256,54.99 c -27,0 -46.418,14.287 -57.633,32.23 -10.03,16.047 -14.203,34.66 -15.017,50.962 -30.608,15.135 -64.515,30.394 -91.815,45.994 -14.32,8.183 -26.805,16.414 -36.203,25.26 C 45.934,218.28 39,228.24 39,239.99 c 0,5 2.44,9.075 5.19,12.065 2.754,2.99 6.054,5.312 9.812,7.48 7.515,4.336 16.99,7.95 27.412,11.076 15.483,4.646 32.823,8.1 47.9,9.577 -14.996,25.84 -34.953,49.574 -52.447,72.315 C 56.65,378.785 39,403.99 39,431.99 c 0,4 -0.044,7.123 0.31,10.26 0.355,3.137 1.256,7.053 4.41,10.156 3.155,3.104 7.017,3.938 10.163,4.28 3.146,0.345 6.315,0.304 10.38,0.304 h 111.542 c 8.097,0 14.026,0.492 20.125,-3.43 6.1,-3.92 8.324,-9.275 12.67,-17.275 l 0.088,-0.16 0.08,-0.166 c 0,0 9.723,-19.77 21.324,-39.388 5.8,-9.808 12.097,-19.576 17.574,-26.498 2.74,-3.46 5.304,-6.204 7.15,-7.754 0.564,-0.472 0.82,-0.56 1.184,-0.76 0.363,0.2 0.62,0.288 1.184,0.76 1.846,1.55 4.41,4.294 7.15,7.754 5.477,6.922 11.774,16.69 17.574,26.498 11.6,19.618 21.324,39.387 21.324,39.387 l 0.08,0.165 0.088,0.16 c 4.346,8 6.55,13.323 12.61,17.254 6.058,3.93 11.974,3.45 19.957,3.45 H 448 c 4,0 7.12,0.043 10.244,-0.304 3.123,-0.347 6.998,-1.21 10.12,-4.332 3.12,-3.122 3.984,-6.997 4.33,-10.12 0.348,-3.122 0.306,-6.244 0.306,-10.244 0,-28 -17.65,-53.205 -37.867,-79.488 -17.493,-22.74 -37.45,-46.474 -52.447,-72.315 15.077,-1.478 32.417,-4.93 47.9,-9.576 10.422,-3.125 19.897,-6.74 27.412,-11.075 3.758,-2.168 7.058,-4.49 9.81,-7.48 2.753,-2.99 5.192,-7.065 5.192,-12.065 0,-11.75 -6.934,-21.71 -16.332,-30.554 -9.398,-8.846 -21.883,-17.077 -36.203,-25.26 -27.3,-15.6 -61.207,-30.86 -91.815,-45.994 -0.814,-16.3 -4.988,-34.915 -15.017,-50.96 C 302.418,69.276 283,54.99 256,54.99 Z"
         inkscape:connector-curvature="0"
         style="fill:#008000;fill-opacity:1;stroke:#00ff00" />
    </g>
    <g
       style="fill:#008000;stroke:#00ff00"
       class=""
       transform="matrix(0.00881199,0,0,0.00881199,166.17006,132.6323)"
       id="g11148">
      <path
         style="fill:#008000;fill-opacity:1;stroke:#00ff00"
         inkscape:connector-curvature="0"
         d="m 256,54.99 c -27,0 -46.418,14.287 -57.633,32.23 -10.03,16.047 -14.203,34.66 -15.017,50.962 -30.608,15.135 -64.515,30.394 -91.815,45.994 -14.32,8.183 -26.805,16.414 -36.203,25.26 C 45.934,218.28 39,228.24 39,239.99 c 0,5 2.44,9.075 5.19,12.065 2.754,2.99 6.054,5.312 9.812,7.48 7.515,4.336 16.99,7.95 27.412,11.076 15.483,4.646 32.823,8.1 47.9,9.577 -14.996,25.84 -34.953,49.574 -52.447,72.315 C 56.65,378.785 39,403.99 39,431.99 c 0,4 -0.044,7.123 0.31,10.26 0.355,3.137 1.256,7.053 4.41,10.156 3.155,3.104 7.017,3.938 10.163,4.28 3.146,0.345 6.315,0.304 10.38,0.304 h 111.542 c 8.097,0 14.026,0.492 20.125,-3.43 6.1,-3.92 8.324,-9.275 12.67,-17.275 l 0.088,-0.16 0.08,-0.166 c 0,0 9.723,-19.77 21.324,-39.388 5.8,-9.808 12.097,-19.576 17.574,-26.498 2.74,-3.46 5.304,-6.204 7.15,-7.754 0.564,-0.472 0.82,-0.56 1.184,-0.76 0.363,0.2 0.62,0.288 1.184,0.76 1.846,1.55 4.41,4.294 7.15,7.754 5.477,6.922 11.774,16.69 17.574,26.498 11.6,19.618 21.324,39.387 21.324,39.387 l 0.08,0.165 0.088,0.16 c 4.346,8 6.55,13.323 12.61,17.254 6.058,3.93 11.974,3.45 19.957,3.45 H 448 c 4,0 7.12,0.043 10.244,-0.304 3.123,-0.347 6.998,-1.21 10.12,-4.332 3.12,-3.122 3.984,-6.997 4.33,-10.12 0.348,-3.122 0.306,-6.244 0.306,-10.244 0,-28 -17.65,-53.205 -37.867,-79.488 -17.493,-22.74 -37.45,-46.474 -52.447,-72.315 15.077,-1.478 32.417,-4.93 47.9,-9.576 10.422,-3.125 19.897,-6.74 27.412,-11.075 3.758,-2.168 7.058,-4.49 9.81,-7.48 2.753,-2.99 5.192,-7.065 5.192,-12.065 0,-11.75 -6.934,-21.71 -16.332,-30.554 -9.398,-8.846 -21.883,-17.077 -36.203,-25.26 -27.3,-15.6 -61.207,-30.86 -91.815,-45.994 -0.814,-16.3 -4.988,-34.915 -15.017,-50.96 C 302.418,69.276 283,54.99 256,54.99 Z"
         id="path11146" />
    </g>
    <g
       id="g11152"
       transform="matrix(0.00881199,0,0,0.00881199,177.88732,125.78148)"
       class=""
       style="fill:#008000;stroke:#00ff00">
      <path
         id="path11150"
         d="m 256,54.99 c -27,0 -46.418,14.287 -57.633,32.23 -10.03,16.047 -14.203,34.66 -15.017,50.962 -30.608,15.135 -64.515,30.394 -91.815,45.994 -14.32,8.183 -26.805,16.414 -36.203,25.26 C 45.934,218.28 39,228.24 39,239.99 c 0,5 2.44,9.075 5.19,12.065 2.754,2.99 6.054,5.312 9.812,7.48 7.515,4.336 16.99,7.95 27.412,11.076 15.483,4.646 32.823,8.1 47.9,9.577 -14.996,25.84 -34.953,49.574 -52.447,72.315 C 56.65,378.785 39,403.99 39,431.99 c 0,4 -0.044,7.123 0.31,10.26 0.355,3.137 1.256,7.053 4.41,10.156 3.155,3.104 7.017,3.938 10.163,4.28 3.146,0.345 6.315,0.304 10.38,0.304 h 111.542 c 8.097,0 14.026,0.492 20.125,-3.43 6.1,-3.92 8.324,-9.275 12.67,-17.275 l 0.088,-0.16 0.08,-0.166 c 0,0 9.723,-19.77 21.324,-39.388 5.8,-9.808 12.097,-19.576 17.574,-26.498 2.74,-3.46 5.304,-6.204 7.15,-7.754 0.564,-0.472 0.82,-0.56 1.184,-0.76 0.363,0.2 0.62,0.288 1.184,0.76 1.846,1.55 4.41,4.294 7.15,7.754 5.477,6.922 11.774,16.69 17.574,26.498 11.6,19.618 21.324,39.387 21.324,39.387 l 0.08,0.165 0.088,0.16 c 4.346,8 6.55,13.323 12.61,17.254 6.058,3.93 11.974,3.45 19.957,3.45 H 448 c 4,0 7.12,0.043 10.244,-0.304 3.123,-0.347 6.998,-1.21 10.12,-4.332 3.12,-3.122 3.984,-6.997 4.33,-10.12 0.348,-3.122 0.306,-6.244 0.306,-10.244 0,-28 -17.65,-53.205 -37.867,-79.488 -17.493,-22.74 -37.45,-46.474 -52.447,-72.315 15.077,-1.478 32.417,-4.93 47.9,-9.576 10.422,-3.125 19.897,-6.74 27.412,-11.075 3.758,-2.168 7.058,-4.49 9.81,-7.48 2.753,-2.99 5.192,-7.065 5.192,-12.065 0,-11.75 -6.934,-21.71 -16.332,-30.554 -9.398,-8.846 -21.883,-17.077 -36.203,-25.26 -27.3,-15.6 -61.207,-30.86 -91.815,-45.994 -0.814,-16.3 -4.988,-34.915 -15.017,-50.96 C 302.418,69.276 283,54.99 256,54.99 Z"
         inkscape:connector-curvature="0"
         style="fill:#008000;fill-opacity:1;stroke:#00ff00" />
    </g>
    <g
       style="fill:#008000;stroke:#00ff00"
       class=""
       transform="matrix(0.00881199,0,0,0.00881199,191.35272,125.78148)"
       id="g11156">
      <path
         style="fill:#008000;fill-opacity:1;stroke:#00ff00"
         inkscape:connector-curvature="0"
         d="m 256,54.99 c -27,0 -46.418,14.287 -57.633,32.23 -10.03,16.047 -14.203,34.66 -15.017,50.962 -30.608,15.135 -64.515,30.394 -91.815,45.994 -14.32,8.183 -26.805,16.414 -36.203,25.26 C 45.934,218.28 39,228.24 39,239.99 c 0,5 2.44,9.075 5.19,12.065 2.754,2.99 6.054,5.312 9.812,7.48 7.515,4.336 16.99,7.95 27.412,11.076 15.483,4.646 32.823,8.1 47.9,9.577 -14.996,25.84 -34.953,49.574 -52.447,72.315 C 56.65,378.785 39,403.99 39,431.99 c 0,4 -0.044,7.123 0.31,10.26 0.355,3.137 1.256,7.053 4.41,10.156 3.155,3.104 7.017,3.938 10.163,4.28 3.146,0.345 6.315,0.304 10.38,0.304 h 111.542 c 8.097,0 14.026,0.492 20.125,-3.43 6.1,-3.92 8.324,-9.275 12.67,-17.275 l 0.088,-0.16 0.08,-0.166 c 0,0 9.723,-19.77 21.324,-39.388 5.8,-9.808 12.097,-19.576 17.574,-26.498 2.74,-3.46 5.304,-6.204 7.15,-7.754 0.564,-0.472 0.82,-0.56 1.184,-0.76 0.363,0.2 0.62,0.288 1.184,0.76 1.846,1.55 4.41,4.294 7.15,7.754 5.477,6.922 11.774,16.69 17.574,26.498 11.6,19.618 21.324,39.387 21.324,39.387 l 0.08,0.165 0.088,0.16 c 4.346,8 6.55,13.323 12.61,17.254 6.058,3.93 11.974,3.45 19.957,3.45 H 448 c 4,0 7.12,0.043 10.244,-0.304 3.123,-0.347 6.998,-1.21 10.12,-4.332 3.12,-3.122 3.984,-6.997 4.33,-10.12 0.348,-3.122 0.306,-6.244 0.306,-10.244 0,-28 -17.65,-53.205 -37.867,-79.488 -17.493,-22.74 -37.45,-46.474 -52.447,-72.315 15.077,-1.478 32.417,-4.93 47.9,-9.576 10.422,-3.125 19.897,-6.74 27.412,-11.075 3.758,-2.168 7.058,-4.49 9.81,-7.48 2.753,-2.99 5.192,-7.065 5.192,-12.065 0,-11.75 -6.934,-21.71 -16.332,-30.554 -9.398,-8.846 -21.883,-17.077 -36.203,-25.26 -27.3,-15.6 -61.207,-30.86 -91.815,-45.994 -0.814,-16.3 -4.988,-34.915 -15.017,-50.96 C 302.418,69.276 283,54.99 256,54.99 Z"
         id="path11154" />
    </g>
  </g>
</svg>
