<?xml version="1.0" encoding="UTF-8" standalone="no"?>
<!-- Created with Inkscape (http://www.inkscape.org/) -->

<svg
   xmlns:dc="http://purl.org/dc/elements/1.1/"
   xmlns:cc="http://creativecommons.org/ns#"
   xmlns:rdf="http://www.w3.org/1999/02/22-rdf-syntax-ns#"
   xmlns:svg="http://www.w3.org/2000/svg"
   xmlns="http://www.w3.org/2000/svg"
   xmlns:sodipodi="http://sodipodi.sourceforge.net/DTD/sodipodi-0.dtd"
   xmlns:inkscape="http://www.inkscape.org/namespaces/inkscape"
   width="54.680584mm"
   height="53.797363mm"
   viewBox="0 0 54.680589 53.797367"
   version="1.1"
   id="svg1921"
   inkscape:version="0.92.4 (5da689c313, 2019-01-14)"
   sodipodi:docname="complete0.svg">
  <defs
     id="defs1915" />
  <sodipodi:namedview
     id="base"
     pagecolor="#ffffff"
     bordercolor="#666666"
     borderopacity="1.0"
     inkscape:pageopacity="0.0"
     inkscape:pageshadow="2"
     inkscape:zoom="3.959798"
     inkscape:cx="99.165169"
     inkscape:cy="105.78491"
     inkscape:document-units="mm"
     inkscape:current-layer="layer1"
     showgrid="false"
     inkscape:window-width="1858"
     inkscape:window-height="1058"
     inkscape:window-x="1016"
     inkscape:window-y="-8"
     inkscape:window-maximized="1" />
  <metadata
     id="metadata1918">
    <rdf:RDF>
      <cc:Work
         rdf:about="">
        <dc:format>image/svg+xml</dc:format>
        <dc:type
           rdf:resource="http://purl.org/dc/dcmitype/StillImage" />
        <dc:title></dc:title>
      </cc:Work>
    </rdf:RDF>
  </metadata>
  <g
     inkscape:label="Layer 1"
     inkscape:groupmode="layer"
     id="layer1"
     transform="translate(-159.59678,-126.26605)">
    <path
       sodipodi:type="star"
       style="opacity:1;fill:none;fill-opacity:1;stroke:#cccccc;stroke-width:0.2;stroke-linecap:round;stroke-linejoin:bevel;stroke-miterlimit:4;stroke-dasharray:none;stroke-dashoffset:0;stroke-opacity:1;paint-order:markers fill stroke"
       id="path10704"
       sodipodi:sides="12"
       sodipodi:cx="156.0854"
       sodipodi:cy="176.06055"
       sodipodi:r1="26.259571"
       sodipodi:r2="21.244438"
       sodipodi:arg1="1.5707963"
       sodipodi:arg2="1.8325957"
       inkscape:flatsided="true"
       inkscape:rounded="0"
       inkscape:randomized="0"
       d="m 156.0854,202.32012 -13.12978,-3.51812 -9.61167,-9.61167 -3.51812,-13.12978 3.51812,-13.12979 9.61167,-9.61167 13.12978,-3.51811 13.12979,3.51811 9.61167,9.61167 3.51811,13.12979 -3.51811,13.12978 -9.61167,9.61167 z"
       inkscape:transform-center-x="1.7731176"
       inkscape:transform-center-y="1.7731097"
       transform="rotate(45,198.98075,202.00303)" />
    <g
       style="stroke:#cccccc"
       id="g10733"
       transform="translate(32.680976,-21.998763)">
      <path
         inkscape:connector-curvature="0"
         id="path10706"
         d="m 135.74396,156.75777 37.13665,37.13664"
         style="opacity:1;fill:none;fill-opacity:1;stroke:#cccccc;stroke-width:0.2;stroke-linecap:round;stroke-linejoin:bevel;stroke-miterlimit:4;stroke-dasharray:none;stroke-dashoffset:0;stroke-opacity:1;paint-order:markers fill stroke" />
      <path
         inkscape:connector-curvature="0"
         id="path10708"
         d="m 161.10876,200.69089 -25.3648,-43.93312"
         style="opacity:1;fill:none;fill-opacity:1;stroke:#cccccc;stroke-width:0.2;stroke-linecap:round;stroke-linejoin:bevel;stroke-miterlimit:4;stroke-dasharray:none;stroke-dashoffset:0;stroke-opacity:1;paint-order:markers fill stroke" />
      <path
         inkscape:connector-curvature="0"
         id="path10710"
         d="m 179.67708,182.12257 -43.93312,-25.3648"
         style="opacity:1;fill:none;fill-opacity:1;stroke:#cccccc;stroke-width:0.2;stroke-linecap:round;stroke-linejoin:bevel;stroke-miterlimit:4;stroke-dasharray:none;stroke-dashoffset:0;stroke-opacity:1;paint-order:markers fill stroke" />
      <path
         inkscape:connector-curvature="0"
         id="path10712"
         d="M 179.67708,168.52961 135.74396,156.75777"
         style="opacity:1;fill:none;fill-opacity:1;stroke:#cccccc;stroke-width:0.2;stroke-linecap:round;stroke-linejoin:bevel;stroke-miterlimit:4;stroke-dasharray:none;stroke-dashoffset:0;stroke-opacity:1;paint-order:markers fill stroke" />
      <path
         inkscape:connector-curvature="0"
         id="path10714"
         d="M 172.88061,156.75777 H 135.74396"
         style="opacity:1;fill:none;fill-opacity:1;stroke:#cccccc;stroke-width:0.2;stroke-linecap:round;stroke-linejoin:bevel;stroke-miterlimit:4;stroke-dasharray:none;stroke-dashoffset:0;stroke-opacity:1;paint-order:markers fill stroke" />
      <path
         inkscape:connector-curvature="0"
         id="path10716"
         d="m 161.10876,149.96129 -25.3648,6.79648"
         style="opacity:1;fill:none;fill-opacity:1;stroke:#cccccc;stroke-width:0.2;stroke-linecap:round;stroke-linejoin:bevel;stroke-miterlimit:4;stroke-dasharray:none;stroke-dashoffset:0;stroke-opacity:1;paint-order:markers fill stroke" />
      <path
         inkscape:connector-curvature="0"
         id="path10718"
         d="M 147.51581,200.69089 135.74396,156.75777"
         style="opacity:1;fill:none;fill-opacity:1;stroke:#cccccc;stroke-width:0.2;stroke-linecap:round;stroke-linejoin:bevel;stroke-miterlimit:4;stroke-dasharray:none;stroke-dashoffset:0;stroke-opacity:1;paint-order:markers fill stroke" />
      <path
         inkscape:connector-curvature="0"
         id="path10720"
         d="m 135.74397,193.89441 -1e-5,-37.13664"
         style="opacity:1;fill:none;fill-opacity:1;stroke:#cccccc;stroke-width:0.2;stroke-linecap:round;stroke-linejoin:bevel;stroke-miterlimit:4;stroke-dasharray:none;stroke-dashoffset:0;stroke-opacity:1;paint-order:markers fill stroke" />
      <path
         inkscape:connector-curvature="0"
         id="path10722"
         d="m 128.94749,182.12257 6.79647,-25.3648"
         style="opacity:1;fill:none;fill-opacity:1;stroke:#cccccc;stroke-width:0.2;stroke-linecap:round;stroke-linejoin:bevel;stroke-miterlimit:4;stroke-dasharray:none;stroke-dashoffset:0;stroke-opacity:1;paint-order:markers fill stroke" />
    </g>
    <g
       style="stroke:#cccccc"
       id="g10753"
       transform="matrix(-1,0,0,1,341.30655,-21.998763)">
      <path
         style="opacity:1;fill:none;fill-opacity:1;stroke:#cccccc;stroke-width:0.2;stroke-linecap:round;stroke-linejoin:bevel;stroke-miterlimit:4;stroke-dasharray:none;stroke-dashoffset:0;stroke-opacity:1;paint-order:markers fill stroke"
         d="m 135.74396,156.75777 37.13665,37.13664"
         id="path10735"
         inkscape:connector-curvature="0" />
      <path
         style="opacity:1;fill:none;fill-opacity:1;stroke:#cccccc;stroke-width:0.2;stroke-linecap:round;stroke-linejoin:bevel;stroke-miterlimit:4;stroke-dasharray:none;stroke-dashoffset:0;stroke-opacity:1;paint-order:markers fill stroke"
         d="m 161.10876,200.69089 -25.3648,-43.93312"
         id="path10737"
         inkscape:connector-curvature="0" />
      <path
         style="opacity:1;fill:none;fill-opacity:1;stroke:#cccccc;stroke-width:0.2;stroke-linecap:round;stroke-linejoin:bevel;stroke-miterlimit:4;stroke-dasharray:none;stroke-dashoffset:0;stroke-opacity:1;paint-order:markers fill stroke"
         d="m 179.67708,182.12257 -43.93312,-25.3648"
         id="path10739"
         inkscape:connector-curvature="0" />
      <path
         style="opacity:1;fill:none;fill-opacity:1;stroke:#cccccc;stroke-width:0.2;stroke-linecap:round;stroke-linejoin:bevel;stroke-miterlimit:4;stroke-dasharray:none;stroke-dashoffset:0;stroke-opacity:1;paint-order:markers fill stroke"
         d="M 179.67708,168.52961 135.74396,156.75777"
         id="path10741"
         inkscape:connector-curvature="0" />
      <path
         style="opacity:1;fill:none;fill-opacity:1;stroke:#cccccc;stroke-width:0.2;stroke-linecap:round;stroke-linejoin:bevel;stroke-miterlimit:4;stroke-dasharray:none;stroke-dashoffset:0;stroke-opacity:1;paint-order:markers fill stroke"
         d="M 172.88061,156.75777 H 135.74396"
         id="path10743"
         inkscape:connector-curvature="0" />
      <path
         style="opacity:1;fill:none;fill-opacity:1;stroke:#cccccc;stroke-width:0.2;stroke-linecap:round;stroke-linejoin:bevel;stroke-miterlimit:4;stroke-dasharray:none;stroke-dashoffset:0;stroke-opacity:1;paint-order:markers fill stroke"
         d="m 161.10876,149.96129 -25.3648,6.79648"
         id="path10745"
         inkscape:connector-curvature="0" />
      <path
         style="opacity:1;fill:none;fill-opacity:1;stroke:#cccccc;stroke-width:0.2;stroke-linecap:round;stroke-linejoin:bevel;stroke-miterlimit:4;stroke-dasharray:none;stroke-dashoffset:0;stroke-opacity:1;paint-order:markers fill stroke"
         d="M 147.51581,200.69089 135.74396,156.75777"
         id="path10747"
         inkscape:connector-curvature="0" />
      <path
         style="opacity:1;fill:none;fill-opacity:1;stroke:#cccccc;stroke-width:0.2;stroke-linecap:round;stroke-linejoin:bevel;stroke-miterlimit:4;stroke-dasharray:none;stroke-dashoffset:0;stroke-opacity:1;paint-order:markers fill stroke"
         d="m 135.74397,193.89441 -1e-5,-37.13664"
         id="path10749"
         inkscape:connector-curvature="0" />
      <path
         style="opacity:1;fill:none;fill-opacity:1;stroke:#cccccc;stroke-width:0.2;stroke-linecap:round;stroke-linejoin:bevel;stroke-miterlimit:4;stroke-dasharray:none;stroke-dashoffset:0;stroke-opacity:1;paint-order:markers fill stroke"
         d="m 128.94749,182.12257 6.79647,-25.3648"
         id="path10751"
         inkscape:connector-curvature="0" />
    </g>
    <g
       style="stroke:#cccccc"
       transform="rotate(-180,170.65327,164.32721)"
       id="g10773">
      <path
         inkscape:connector-curvature="0"
         id="path10755"
         d="m 135.74396,156.75777 37.13665,37.13664"
         style="opacity:1;fill:none;fill-opacity:1;stroke:#cccccc;stroke-width:0.2;stroke-linecap:round;stroke-linejoin:bevel;stroke-miterlimit:4;stroke-dasharray:none;stroke-dashoffset:0;stroke-opacity:1;paint-order:markers fill stroke" />
      <path
         inkscape:connector-curvature="0"
         id="path10757"
         d="m 161.10876,200.69089 -25.3648,-43.93312"
         style="opacity:1;fill:none;fill-opacity:1;stroke:#cccccc;stroke-width:0.2;stroke-linecap:round;stroke-linejoin:bevel;stroke-miterlimit:4;stroke-dasharray:none;stroke-dashoffset:0;stroke-opacity:1;paint-order:markers fill stroke" />
      <path
         inkscape:connector-curvature="0"
         id="path10759"
         d="m 179.67708,182.12257 -43.93312,-25.3648"
         style="opacity:1;fill:none;fill-opacity:1;stroke:#cccccc;stroke-width:0.2;stroke-linecap:round;stroke-linejoin:bevel;stroke-miterlimit:4;stroke-dasharray:none;stroke-dashoffset:0;stroke-opacity:1;paint-order:markers fill stroke" />
      <path
         inkscape:connector-curvature="0"
         id="path10761"
         d="M 179.67708,168.52961 135.74396,156.75777"
         style="opacity:1;fill:none;fill-opacity:1;stroke:#cccccc;stroke-width:0.2;stroke-linecap:round;stroke-linejoin:bevel;stroke-miterlimit:4;stroke-dasharray:none;stroke-dashoffset:0;stroke-opacity:1;paint-order:markers fill stroke" />
      <path
         inkscape:connector-curvature="0"
         id="path10763"
         d="M 172.88061,156.75777 H 135.74396"
         style="opacity:1;fill:none;fill-opacity:1;stroke:#cccccc;stroke-width:0.2;stroke-linecap:round;stroke-linejoin:bevel;stroke-miterlimit:4;stroke-dasharray:none;stroke-dashoffset:0;stroke-opacity:1;paint-order:markers fill stroke" />
      <path
         inkscape:connector-curvature="0"
         id="path10765"
         d="m 161.10876,149.96129 -25.3648,6.79648"
         style="opacity:1;fill:none;fill-opacity:1;stroke:#cccccc;stroke-width:0.2;stroke-linecap:round;stroke-linejoin:bevel;stroke-miterlimit:4;stroke-dasharray:none;stroke-dashoffset:0;stroke-opacity:1;paint-order:markers fill stroke" />
      <path
         inkscape:connector-curvature="0"
         id="path10767"
         d="M 147.51581,200.69089 135.74396,156.75777"
         style="opacity:1;fill:none;fill-opacity:1;stroke:#cccccc;stroke-width:0.2;stroke-linecap:round;stroke-linejoin:bevel;stroke-miterlimit:4;stroke-dasharray:none;stroke-dashoffset:0;stroke-opacity:1;paint-order:markers fill stroke" />
      <path
         inkscape:connector-curvature="0"
         id="path10769"
         d="m 135.74397,193.89441 -1e-5,-37.13664"
         style="opacity:1;fill:none;fill-opacity:1;stroke:#cccccc;stroke-width:0.2;stroke-linecap:round;stroke-linejoin:bevel;stroke-miterlimit:4;stroke-dasharray:none;stroke-dashoffset:0;stroke-opacity:1;paint-order:markers fill stroke" />
      <path
         inkscape:connector-curvature="0"
         id="path10771"
         d="m 128.94749,182.12257 6.79647,-25.3648"
         style="opacity:1;fill:none;fill-opacity:1;stroke:#cccccc;stroke-width:0.2;stroke-linecap:round;stroke-linejoin:bevel;stroke-miterlimit:4;stroke-dasharray:none;stroke-dashoffset:0;stroke-opacity:1;paint-order:markers fill stroke" />
    </g>
    <g
       style="stroke:#cccccc"
       id="g10793"
       transform="matrix(1,0,0,-1,32.680966,328.65442)">
      <path
         style="opacity:1;fill:none;fill-opacity:1;stroke:#cccccc;stroke-width:0.2;stroke-linecap:round;stroke-linejoin:bevel;stroke-miterlimit:4;stroke-dasharray:none;stroke-dashoffset:0;stroke-opacity:1;paint-order:markers fill stroke"
         d="m 135.74396,156.75777 37.13665,37.13664"
         id="path10775"
         inkscape:connector-curvature="0" />
      <path
         style="opacity:1;fill:none;fill-opacity:1;stroke:#cccccc;stroke-width:0.2;stroke-linecap:round;stroke-linejoin:bevel;stroke-miterlimit:4;stroke-dasharray:none;stroke-dashoffset:0;stroke-opacity:1;paint-order:markers fill stroke"
         d="m 161.10876,200.69089 -25.3648,-43.93312"
         id="path10777"
         inkscape:connector-curvature="0" />
      <path
         style="opacity:1;fill:none;fill-opacity:1;stroke:#cccccc;stroke-width:0.2;stroke-linecap:round;stroke-linejoin:bevel;stroke-miterlimit:4;stroke-dasharray:none;stroke-dashoffset:0;stroke-opacity:1;paint-order:markers fill stroke"
         d="m 179.67708,182.12257 -43.93312,-25.3648"
         id="path10779"
         inkscape:connector-curvature="0" />
      <path
         style="opacity:1;fill:none;fill-opacity:1;stroke:#cccccc;stroke-width:0.2;stroke-linecap:round;stroke-linejoin:bevel;stroke-miterlimit:4;stroke-dasharray:none;stroke-dashoffset:0;stroke-opacity:1;paint-order:markers fill stroke"
         d="M 179.67708,168.52961 135.74396,156.75777"
         id="path10781"
         inkscape:connector-curvature="0" />
      <path
         style="opacity:1;fill:none;fill-opacity:1;stroke:#cccccc;stroke-width:0.2;stroke-linecap:round;stroke-linejoin:bevel;stroke-miterlimit:4;stroke-dasharray:none;stroke-dashoffset:0;stroke-opacity:1;paint-order:markers fill stroke"
         d="M 172.88061,156.75777 H 135.74396"
         id="path10783"
         inkscape:connector-curvature="0" />
      <path
         style="opacity:1;fill:none;fill-opacity:1;stroke:#cccccc;stroke-width:0.2;stroke-linecap:round;stroke-linejoin:bevel;stroke-miterlimit:4;stroke-dasharray:none;stroke-dashoffset:0;stroke-opacity:1;paint-order:markers fill stroke"
         d="m 161.10876,149.96129 -25.3648,6.79648"
         id="path10785"
         inkscape:connector-curvature="0" />
      <path
         style="opacity:1;fill:none;fill-opacity:1;stroke:#cccccc;stroke-width:0.2;stroke-linecap:round;stroke-linejoin:bevel;stroke-miterlimit:4;stroke-dasharray:none;stroke-dashoffset:0;stroke-opacity:1;paint-order:markers fill stroke"
         d="M 147.51581,200.69089 135.74396,156.75777"
         id="path10787"
         inkscape:connector-curvature="0" />
      <path
         style="opacity:1;fill:none;fill-opacity:1;stroke:#cccccc;stroke-width:0.2;stroke-linecap:round;stroke-linejoin:bevel;stroke-miterlimit:4;stroke-dasharray:none;stroke-dashoffset:0;stroke-opacity:1;paint-order:markers fill stroke"
         d="m 135.74397,193.89441 -1e-5,-37.13664"
         id="path10789"
         inkscape:connector-curvature="0" />
      <path
         style="opacity:1;fill:none;fill-opacity:1;stroke:#cccccc;stroke-width:0.2;stroke-linecap:round;stroke-linejoin:bevel;stroke-miterlimit:4;stroke-dasharray:none;stroke-dashoffset:0;stroke-opacity:1;paint-order:markers fill stroke"
         d="m 128.94749,182.12257 6.79647,-25.3648"
         id="path10791"
         inkscape:connector-curvature="0" />
    </g>
    <g
       style="stroke:#cccccc"
       transform="matrix(0.8660254,0.5,0.5,-0.8660254,-34.308336,228.00872)"
       id="g10813">
      <path
         inkscape:connector-curvature="0"
         id="path10795"
         d="m 135.74396,156.75777 37.13665,37.13664"
         style="opacity:1;fill:none;fill-opacity:1;stroke:#cccccc;stroke-width:0.2;stroke-linecap:round;stroke-linejoin:bevel;stroke-miterlimit:4;stroke-dasharray:none;stroke-dashoffset:0;stroke-opacity:1;paint-order:markers fill stroke" />
      <path
         inkscape:connector-curvature="0"
         id="path10797"
         d="m 161.10876,200.69089 -25.3648,-43.93312"
         style="opacity:1;fill:none;fill-opacity:1;stroke:#cccccc;stroke-width:0.2;stroke-linecap:round;stroke-linejoin:bevel;stroke-miterlimit:4;stroke-dasharray:none;stroke-dashoffset:0;stroke-opacity:1;paint-order:markers fill stroke" />
      <path
         inkscape:connector-curvature="0"
         id="path10799"
         d="m 179.67708,182.12257 -43.93312,-25.3648"
         style="opacity:1;fill:none;fill-opacity:1;stroke:#cccccc;stroke-width:0.2;stroke-linecap:round;stroke-linejoin:bevel;stroke-miterlimit:4;stroke-dasharray:none;stroke-dashoffset:0;stroke-opacity:1;paint-order:markers fill stroke" />
      <path
         inkscape:connector-curvature="0"
         id="path10801"
         d="M 179.67708,168.52961 135.74396,156.75777"
         style="opacity:1;fill:none;fill-opacity:1;stroke:#cccccc;stroke-width:0.2;stroke-linecap:round;stroke-linejoin:bevel;stroke-miterlimit:4;stroke-dasharray:none;stroke-dashoffset:0;stroke-opacity:1;paint-order:markers fill stroke" />
      <path
         inkscape:connector-curvature="0"
         id="path10803"
         d="M 172.88061,156.75777 H 135.74396"
         style="opacity:1;fill:none;fill-opacity:1;stroke:#cccccc;stroke-width:0.2;stroke-linecap:round;stroke-linejoin:bevel;stroke-miterlimit:4;stroke-dasharray:none;stroke-dashoffset:0;stroke-opacity:1;paint-order:markers fill stroke" />
      <path
         inkscape:connector-curvature="0"
         id="path10805"
         d="m 161.10876,149.96129 -25.3648,6.79648"
         style="opacity:1;fill:none;fill-opacity:1;stroke:#cccccc;stroke-width:0.2;stroke-linecap:round;stroke-linejoin:bevel;stroke-miterlimit:4;stroke-dasharray:none;stroke-dashoffset:0;stroke-opacity:1;paint-order:markers fill stroke" />
      <path
         inkscape:connector-curvature="0"
         id="path10807"
         d="M 147.51581,200.69089 135.74396,156.75777"
         style="opacity:1;fill:none;fill-opacity:1;stroke:#cccccc;stroke-width:0.2;stroke-linecap:round;stroke-linejoin:bevel;stroke-miterlimit:4;stroke-dasharray:none;stroke-dashoffset:0;stroke-opacity:1;paint-order:markers fill stroke" />
      <path
         inkscape:connector-curvature="0"
         id="path10809"
         d="m 135.74397,193.89441 -1e-5,-37.13664"
         style="opacity:1;fill:none;fill-opacity:1;stroke:#cccccc;stroke-width:0.2;stroke-linecap:round;stroke-linejoin:bevel;stroke-miterlimit:4;stroke-dasharray:none;stroke-dashoffset:0;stroke-opacity:1;paint-order:markers fill stroke" />
      <path
         inkscape:connector-curvature="0"
         id="path10811"
         d="m 128.94749,182.12257 6.79647,-25.3648"
         style="opacity:1;fill:none;fill-opacity:1;stroke:#cccccc;stroke-width:0.2;stroke-linecap:round;stroke-linejoin:bevel;stroke-miterlimit:4;stroke-dasharray:none;stroke-dashoffset:0;stroke-opacity:1;paint-order:markers fill stroke" />
    </g>
    <g
       style="stroke:#cccccc"
       id="g10873"
       transform="matrix(0.5,0.8660254,0.8660254,-0.5,-41.999978,107.35269)">
      <path
         style="opacity:1;fill:none;fill-opacity:1;stroke:#cccccc;stroke-width:0.2;stroke-linecap:round;stroke-linejoin:bevel;stroke-miterlimit:4;stroke-dasharray:none;stroke-dashoffset:0;stroke-opacity:1;paint-order:markers fill stroke"
         d="m 135.74396,156.75777 37.13665,37.13664"
         id="path10855"
         inkscape:connector-curvature="0" />
      <path
         style="opacity:1;fill:none;fill-opacity:1;stroke:#cccccc;stroke-width:0.2;stroke-linecap:round;stroke-linejoin:bevel;stroke-miterlimit:4;stroke-dasharray:none;stroke-dashoffset:0;stroke-opacity:1;paint-order:markers fill stroke"
         d="m 161.10876,200.69089 -25.3648,-43.93312"
         id="path10857"
         inkscape:connector-curvature="0" />
      <path
         style="opacity:1;fill:none;fill-opacity:1;stroke:#cccccc;stroke-width:0.2;stroke-linecap:round;stroke-linejoin:bevel;stroke-miterlimit:4;stroke-dasharray:none;stroke-dashoffset:0;stroke-opacity:1;paint-order:markers fill stroke"
         d="m 179.67708,182.12257 -43.93312,-25.3648"
         id="path10859"
         inkscape:connector-curvature="0" />
      <path
         style="opacity:1;fill:none;fill-opacity:1;stroke:#cccccc;stroke-width:0.2;stroke-linecap:round;stroke-linejoin:bevel;stroke-miterlimit:4;stroke-dasharray:none;stroke-dashoffset:0;stroke-opacity:1;paint-order:markers fill stroke"
         d="M 179.67708,168.52961 135.74396,156.75777"
         id="path10861"
         inkscape:connector-curvature="0" />
      <path
         style="opacity:1;fill:none;fill-opacity:1;stroke:#cccccc;stroke-width:0.2;stroke-linecap:round;stroke-linejoin:bevel;stroke-miterlimit:4;stroke-dasharray:none;stroke-dashoffset:0;stroke-opacity:1;paint-order:markers fill stroke"
         d="M 172.88061,156.75777 H 135.74396"
         id="path10863"
         inkscape:connector-curvature="0" />
      <path
         style="opacity:1;fill:none;fill-opacity:1;stroke:#cccccc;stroke-width:0.2;stroke-linecap:round;stroke-linejoin:bevel;stroke-miterlimit:4;stroke-dasharray:none;stroke-dashoffset:0;stroke-opacity:1;paint-order:markers fill stroke"
         d="m 161.10876,149.96129 -25.3648,6.79648"
         id="path10865"
         inkscape:connector-curvature="0" />
      <path
         style="opacity:1;fill:none;fill-opacity:1;stroke:#cccccc;stroke-width:0.2;stroke-linecap:round;stroke-linejoin:bevel;stroke-miterlimit:4;stroke-dasharray:none;stroke-dashoffset:0;stroke-opacity:1;paint-order:markers fill stroke"
         d="M 147.51581,200.69089 135.74396,156.75777"
         id="path10867"
         inkscape:connector-curvature="0" />
      <path
         style="opacity:1;fill:none;fill-opacity:1;stroke:#cccccc;stroke-width:0.2;stroke-linecap:round;stroke-linejoin:bevel;stroke-miterlimit:4;stroke-dasharray:none;stroke-dashoffset:0;stroke-opacity:1;paint-order:markers fill stroke"
         d="m 135.74397,193.89441 -1e-5,-37.13664"
         id="path10869"
         inkscape:connector-curvature="0" />
      <path
         style="opacity:1;fill:none;fill-opacity:1;stroke:#cccccc;stroke-width:0.2;stroke-linecap:round;stroke-linejoin:bevel;stroke-miterlimit:4;stroke-dasharray:none;stroke-dashoffset:0;stroke-opacity:1;paint-order:markers fill stroke"
         d="m 128.94749,182.12257 6.79647,-25.3648"
         id="path10871"
         inkscape:connector-curvature="0" />
    </g>
    <path
       style="opacity:1;fill:none;fill-opacity:1;stroke:#cccccc;stroke-width:0.2;stroke-linecap:round;stroke-linejoin:bevel;stroke-miterlimit:4;stroke-dasharray:none;stroke-dashoffset:0;stroke-opacity:1;paint-order:markers fill stroke"
       d="m 205.56157,134.76001 -11.77208,-6.7968 -13.59295,2e-5"
       id="path11740"
       inkscape:connector-curvature="0"
       sodipodi:nodetypes="ccc" />
    <g
       style="stroke:#cccccc"
       transform="matrix(-0.5,0.8660254,0.8660254,0.5,112.3124,-67.973345)"
       id="g10893">
      <path
         inkscape:connector-curvature="0"
         id="path10875"
         d="m 135.74396,156.75777 37.13665,37.13664"
         style="opacity:1;fill:none;fill-opacity:1;stroke:#cccccc;stroke-width:0.2;stroke-linecap:round;stroke-linejoin:bevel;stroke-miterlimit:4;stroke-dasharray:none;stroke-dashoffset:0;stroke-opacity:1;paint-order:markers fill stroke" />
      <path
         inkscape:connector-curvature="0"
         id="path10877"
         d="m 161.10876,200.69089 -25.3648,-43.93312"
         style="opacity:1;fill:none;fill-opacity:1;stroke:#cccccc;stroke-width:0.2;stroke-linecap:round;stroke-linejoin:bevel;stroke-miterlimit:4;stroke-dasharray:none;stroke-dashoffset:0;stroke-opacity:1;paint-order:markers fill stroke" />
      <path
         inkscape:connector-curvature="0"
         id="path10879"
         d="m 179.67708,182.12257 -43.93312,-25.3648"
         style="opacity:1;fill:none;fill-opacity:1;stroke:#cccccc;stroke-width:0.2;stroke-linecap:round;stroke-linejoin:bevel;stroke-miterlimit:4;stroke-dasharray:none;stroke-dashoffset:0;stroke-opacity:1;paint-order:markers fill stroke" />
      <path
         inkscape:connector-curvature="0"
         id="path10881"
         d="M 179.67708,168.52961 135.74396,156.75777"
         style="opacity:1;fill:none;fill-opacity:1;stroke:#cccccc;stroke-width:0.2;stroke-linecap:round;stroke-linejoin:bevel;stroke-miterlimit:4;stroke-dasharray:none;stroke-dashoffset:0;stroke-opacity:1;paint-order:markers fill stroke" />
      <path
         inkscape:connector-curvature="0"
         id="path10883"
         d="M 172.88061,156.75777 H 135.74396"
         style="opacity:1;fill:none;fill-opacity:1;stroke:#cccccc;stroke-width:0.2;stroke-linecap:round;stroke-linejoin:bevel;stroke-miterlimit:4;stroke-dasharray:none;stroke-dashoffset:0;stroke-opacity:1;paint-order:markers fill stroke" />
      <path
         inkscape:connector-curvature="0"
         id="path10885"
         d="m 161.10876,149.96129 -25.3648,6.79648"
         style="opacity:1;fill:none;fill-opacity:1;stroke:#cccccc;stroke-width:0.2;stroke-linecap:round;stroke-linejoin:bevel;stroke-miterlimit:4;stroke-dasharray:none;stroke-dashoffset:0;stroke-opacity:1;paint-order:markers fill stroke" />
      <path
         inkscape:connector-curvature="0"
         id="path10887"
         d="M 147.51581,200.69089 135.74396,156.75777"
         style="opacity:1;fill:none;fill-opacity:1;stroke:#cccccc;stroke-width:0.2;stroke-linecap:round;stroke-linejoin:bevel;stroke-miterlimit:4;stroke-dasharray:none;stroke-dashoffset:0;stroke-opacity:1;paint-order:markers fill stroke" />
      <path
         inkscape:connector-curvature="0"
         id="path10889"
         d="m 135.74397,193.89441 -1e-5,-37.13664"
         style="opacity:1;fill:none;fill-opacity:1;stroke:#cccccc;stroke-width:0.2;stroke-linecap:round;stroke-linejoin:bevel;stroke-miterlimit:4;stroke-dasharray:none;stroke-dashoffset:0;stroke-opacity:1;paint-order:markers fill stroke" />
      <path
         inkscape:connector-curvature="0"
         id="path10891"
         d="m 128.94749,182.12257 6.79647,-25.3648"
         style="opacity:1;fill:none;fill-opacity:1;stroke:#cccccc;stroke-width:0.2;stroke-linecap:round;stroke-linejoin:bevel;stroke-miterlimit:4;stroke-dasharray:none;stroke-dashoffset:0;stroke-opacity:1;paint-order:markers fill stroke" />
    </g>
    <g
       style="stroke:#cccccc"
       transform="matrix(-0.8660254,-0.5,-0.5,0.8660254,408.29447,78.647397)"
       id="g10933">
      <path
         inkscape:connector-curvature="0"
         id="path10915"
         d="m 135.74396,156.75777 37.13665,37.13664"
         style="opacity:1;fill:none;fill-opacity:1;stroke:#cccccc;stroke-width:0.2;stroke-linecap:round;stroke-linejoin:bevel;stroke-miterlimit:4;stroke-dasharray:none;stroke-dashoffset:0;stroke-opacity:1;paint-order:markers fill stroke" />
      <path
         inkscape:connector-curvature="0"
         id="path10917"
         d="m 161.10876,200.69089 -25.3648,-43.93312"
         style="opacity:1;fill:none;fill-opacity:1;stroke:#cccccc;stroke-width:0.2;stroke-linecap:round;stroke-linejoin:bevel;stroke-miterlimit:4;stroke-dasharray:none;stroke-dashoffset:0;stroke-opacity:1;paint-order:markers fill stroke" />
      <path
         inkscape:connector-curvature="0"
         id="path10919"
         d="m 179.67708,182.12257 -43.93312,-25.3648"
         style="opacity:1;fill:none;fill-opacity:1;stroke:#cccccc;stroke-width:0.2;stroke-linecap:round;stroke-linejoin:bevel;stroke-miterlimit:4;stroke-dasharray:none;stroke-dashoffset:0;stroke-opacity:1;paint-order:markers fill stroke" />
      <path
         inkscape:connector-curvature="0"
         id="path10921"
         d="M 179.67708,168.52961 135.74396,156.75777"
         style="opacity:1;fill:none;fill-opacity:1;stroke:#cccccc;stroke-width:0.2;stroke-linecap:round;stroke-linejoin:bevel;stroke-miterlimit:4;stroke-dasharray:none;stroke-dashoffset:0;stroke-opacity:1;paint-order:markers fill stroke" />
      <path
         inkscape:connector-curvature="0"
         id="path10923"
         d="M 172.88061,156.75777 H 135.74396"
         style="opacity:1;fill:none;fill-opacity:1;stroke:#cccccc;stroke-width:0.2;stroke-linecap:round;stroke-linejoin:bevel;stroke-miterlimit:4;stroke-dasharray:none;stroke-dashoffset:0;stroke-opacity:1;paint-order:markers fill stroke" />
      <path
         inkscape:connector-curvature="0"
         id="path10925"
         d="m 161.10876,149.96129 -25.3648,6.79648"
         style="opacity:1;fill:none;fill-opacity:1;stroke:#cccccc;stroke-width:0.2;stroke-linecap:round;stroke-linejoin:bevel;stroke-miterlimit:4;stroke-dasharray:none;stroke-dashoffset:0;stroke-opacity:1;paint-order:markers fill stroke" />
      <path
         inkscape:connector-curvature="0"
         id="path10927"
         d="M 147.51581,200.69089 135.74396,156.75777"
         style="opacity:1;fill:none;fill-opacity:1;stroke:#cccccc;stroke-width:0.2;stroke-linecap:round;stroke-linejoin:bevel;stroke-miterlimit:4;stroke-dasharray:none;stroke-dashoffset:0;stroke-opacity:1;paint-order:markers fill stroke" />
      <path
         inkscape:connector-curvature="0"
         id="path10929"
         d="m 135.74397,193.89441 -1e-5,-37.13664"
         style="opacity:1;fill:none;fill-opacity:1;stroke:#cccccc;stroke-width:0.2;stroke-linecap:round;stroke-linejoin:bevel;stroke-miterlimit:4;stroke-dasharray:none;stroke-dashoffset:0;stroke-opacity:1;paint-order:markers fill stroke" />
      <path
         inkscape:connector-curvature="0"
         id="path10931"
         d="m 128.94749,182.12257 6.79647,-25.3648"
         style="opacity:1;fill:none;fill-opacity:1;stroke:#cccccc;stroke-width:0.2;stroke-linecap:round;stroke-linejoin:bevel;stroke-miterlimit:4;stroke-dasharray:none;stroke-dashoffset:0;stroke-opacity:1;paint-order:markers fill stroke" />
    </g>
    <g
       style="stroke:#cccccc"
       id="g10953"
       transform="matrix(0.5,-0.8660254,-0.8660254,-0.5,261.67388,374.62962)">
      <path
         style="opacity:1;fill:none;fill-opacity:1;stroke:#cccccc;stroke-width:0.2;stroke-linecap:round;stroke-linejoin:bevel;stroke-miterlimit:4;stroke-dasharray:none;stroke-dashoffset:0;stroke-opacity:1;paint-order:markers fill stroke"
         d="m 135.74396,156.75777 37.13665,37.13664"
         id="path10935"
         inkscape:connector-curvature="0" />
      <path
         style="opacity:1;fill:none;fill-opacity:1;stroke:#cccccc;stroke-width:0.2;stroke-linecap:round;stroke-linejoin:bevel;stroke-miterlimit:4;stroke-dasharray:none;stroke-dashoffset:0;stroke-opacity:1;paint-order:markers fill stroke"
         d="m 161.10876,200.69089 -25.3648,-43.93312"
         id="path10937"
         inkscape:connector-curvature="0" />
      <path
         style="opacity:1;fill:none;fill-opacity:1;stroke:#cccccc;stroke-width:0.2;stroke-linecap:round;stroke-linejoin:bevel;stroke-miterlimit:4;stroke-dasharray:none;stroke-dashoffset:0;stroke-opacity:1;paint-order:markers fill stroke"
         d="m 179.67708,182.12257 -43.93312,-25.3648"
         id="path10939"
         inkscape:connector-curvature="0" />
      <path
         style="opacity:1;fill:none;fill-opacity:1;stroke:#cccccc;stroke-width:0.2;stroke-linecap:round;stroke-linejoin:bevel;stroke-miterlimit:4;stroke-dasharray:none;stroke-dashoffset:0;stroke-opacity:1;paint-order:markers fill stroke"
         d="M 179.67708,168.52961 135.74396,156.75777"
         id="path10941"
         inkscape:connector-curvature="0" />
      <path
         style="opacity:1;fill:none;fill-opacity:1;stroke:#cccccc;stroke-width:0.2;stroke-linecap:round;stroke-linejoin:bevel;stroke-miterlimit:4;stroke-dasharray:none;stroke-dashoffset:0;stroke-opacity:1;paint-order:markers fill stroke"
         d="M 172.88061,156.75777 H 135.74396"
         id="path10943"
         inkscape:connector-curvature="0" />
      <path
         style="opacity:1;fill:none;fill-opacity:1;stroke:#cccccc;stroke-width:0.2;stroke-linecap:round;stroke-linejoin:bevel;stroke-miterlimit:4;stroke-dasharray:none;stroke-dashoffset:0;stroke-opacity:1;paint-order:markers fill stroke"
         d="m 161.10876,149.96129 -25.3648,6.79648"
         id="path10945"
         inkscape:connector-curvature="0" />
      <path
         style="opacity:1;fill:none;fill-opacity:1;stroke:#cccccc;stroke-width:0.2;stroke-linecap:round;stroke-linejoin:bevel;stroke-miterlimit:4;stroke-dasharray:none;stroke-dashoffset:0;stroke-opacity:1;paint-order:markers fill stroke"
         d="M 147.51581,200.69089 135.74396,156.75777"
         id="path10947"
         inkscape:connector-curvature="0" />
      <path
         style="opacity:1;fill:none;fill-opacity:1;stroke:#cccccc;stroke-width:0.2;stroke-linecap:round;stroke-linejoin:bevel;stroke-miterlimit:4;stroke-dasharray:none;stroke-dashoffset:0;stroke-opacity:1;paint-order:markers fill stroke"
         d="m 135.74397,193.89441 -1e-5,-37.13664"
         id="path10949"
         inkscape:connector-curvature="0" />
      <path
         style="opacity:1;fill:none;fill-opacity:1;stroke:#cccccc;stroke-width:0.2;stroke-linecap:round;stroke-linejoin:bevel;stroke-miterlimit:4;stroke-dasharray:none;stroke-dashoffset:0;stroke-opacity:1;paint-order:markers fill stroke"
         d="m 128.94749,182.12257 6.79647,-25.3648"
         id="path10951"
         inkscape:connector-curvature="0" />
    </g>
    <g
       id="g6474-63-3-4"
       transform="matrix(0.00881199,0,0,0.00881199,203.30571,132.6323)"
       class=""
       style="fill:#999999">
      <path
         id="path6472-69-4-4"
         d="m 256,54.99 c -27,0 -46.418,14.287 -57.633,32.23 -10.03,16.047 -14.203,34.66 -15.017,50.962 -30.608,15.135 -64.515,30.394 -91.815,45.994 -14.32,8.183 -26.805,16.414 -36.203,25.26 C 45.934,218.28 39,228.24 39,239.99 c 0,5 2.44,9.075 5.19,12.065 2.754,2.99 6.054,5.312 9.812,7.48 7.515,4.336 16.99,7.95 27.412,11.076 15.483,4.646 32.823,8.1 47.9,9.577 -14.996,25.84 -34.953,49.574 -52.447,72.315 C 56.65,378.785 39,403.99 39,431.99 c 0,4 -0.044,7.123 0.31,10.26 0.355,3.137 1.256,7.053 4.41,10.156 3.155,3.104 7.017,3.938 10.163,4.28 3.146,0.345 6.315,0.304 10.38,0.304 h 111.542 c 8.097,0 14.026,0.492 20.125,-3.43 6.1,-3.92 8.324,-9.275 12.67,-17.275 l 0.088,-0.16 0.08,-0.166 c 0,0 9.723,-19.77 21.324,-39.388 5.8,-9.808 12.097,-19.576 17.574,-26.498 2.74,-3.46 5.304,-6.204 7.15,-7.754 0.564,-0.472 0.82,-0.56 1.184,-0.76 0.363,0.2 0.62,0.288 1.184,0.76 1.846,1.55 4.41,4.294 7.15,7.754 5.477,6.922 11.774,16.69 17.574,26.498 11.6,19.618 21.324,39.387 21.324,39.387 l 0.08,0.165 0.088,0.16 c 4.346,8 6.55,13.323 12.61,17.254 6.058,3.93 11.974,3.45 19.957,3.45 H 448 c 4,0 7.12,0.043 10.244,-0.304 3.123,-0.347 6.998,-1.21 10.12,-4.332 3.12,-3.122 3.984,-6.997 4.33,-10.12 0.348,-3.122 0.306,-6.244 0.306,-10.244 0,-28 -17.65,-53.205 -37.867,-79.488 -17.493,-22.74 -37.45,-46.474 -52.447,-72.315 15.077,-1.478 32.417,-4.93 47.9,-9.576 10.422,-3.125 19.897,-6.74 27.412,-11.075 3.758,-2.168 7.058,-4.49 9.81,-7.48 2.753,-2.99 5.192,-7.065 5.192,-12.065 0,-11.75 -6.934,-21.71 -16.332,-30.554 -9.398,-8.846 -21.883,-17.077 -36.203,-25.26 -27.3,-15.6 -61.207,-30.86 -91.815,-45.994 -0.814,-16.3 -4.988,-34.915 -15.017,-50.96 C 302.418,69.276 283,54.99 256,54.99 Z"
         inkscape:connector-curvature="0"
         style="fill:#999999;fill-opacity:1" />
    </g>
    <g
       style="stroke:#cccccc;fill:#ececec"
       id="g10913"
       transform="matrix(-0.8660254,0.5,0.5,0.8660254,232.96844,-75.664987)">
      <path
         style="opacity:1;fill:#ececec;fill-opacity:1;stroke:#cccccc;stroke-width:0.2;stroke-linecap:round;stroke-linejoin:bevel;stroke-miterlimit:4;stroke-dasharray:none;stroke-dashoffset:0;stroke-opacity:1;paint-order:markers fill stroke"
         d="m 135.74396,156.75777 37.13665,37.13664"
         id="path10895"
         inkscape:connector-curvature="0" />
      <path
         style="opacity:1;fill:#ececec;fill-opacity:1;stroke:#cccccc;stroke-width:0.2;stroke-linecap:round;stroke-linejoin:bevel;stroke-miterlimit:4;stroke-dasharray:none;stroke-dashoffset:0;stroke-opacity:1;paint-order:markers fill stroke"
         d="m 161.10876,200.69089 -25.3648,-43.93312"
         id="path10897"
         inkscape:connector-curvature="0" />
      <path
         style="opacity:1;fill:#ececec;fill-opacity:1;stroke:#cccccc;stroke-width:0.2;stroke-linecap:round;stroke-linejoin:bevel;stroke-miterlimit:4;stroke-dasharray:none;stroke-dashoffset:0;stroke-opacity:1;paint-order:markers fill stroke"
         d="m 179.67708,182.12257 -43.93312,-25.3648"
         id="path10899"
         inkscape:connector-curvature="0" />
      <path
         style="opacity:1;fill:#ececec;fill-opacity:1;stroke:#cccccc;stroke-width:0.2;stroke-linecap:round;stroke-linejoin:bevel;stroke-miterlimit:4;stroke-dasharray:none;stroke-dashoffset:0;stroke-opacity:1;paint-order:markers fill stroke"
         d="M 179.67708,168.52961 135.74396,156.75777"
         id="path10901"
         inkscape:connector-curvature="0" />
      <path
         style="opacity:1;fill:#ececec;fill-opacity:1;stroke:#cccccc;stroke-width:0.2;stroke-linecap:round;stroke-linejoin:bevel;stroke-miterlimit:4;stroke-dasharray:none;stroke-dashoffset:0;stroke-opacity:1;paint-order:markers fill stroke"
         d="M 172.88061,156.75777 H 135.74396"
         id="path10903"
         inkscape:connector-curvature="0" />
      <path
         style="opacity:1;fill:#ececec;fill-opacity:1;stroke:#cccccc;stroke-width:0.2;stroke-linecap:round;stroke-linejoin:bevel;stroke-miterlimit:4;stroke-dasharray:none;stroke-dashoffset:0;stroke-opacity:1;paint-order:markers fill stroke"
         d="m 161.10876,149.96129 -25.3648,6.79648"
         id="path10905"
         inkscape:connector-curvature="0" />
      <path
         style="opacity:1;fill:#ececec;fill-opacity:1;stroke:#cccccc;stroke-width:0.2;stroke-linecap:round;stroke-linejoin:bevel;stroke-miterlimit:4;stroke-dasharray:none;stroke-dashoffset:0;stroke-opacity:1;paint-order:markers fill stroke"
         d="M 147.51581,200.69089 135.74396,156.75777"
         id="path10907"
         inkscape:connector-curvature="0" />
      <path
         style="opacity:1;fill:#ececec;fill-opacity:1;stroke:#cccccc;stroke-width:0.2;stroke-linecap:round;stroke-linejoin:bevel;stroke-miterlimit:4;stroke-dasharray:none;stroke-dashoffset:0;stroke-opacity:1;paint-order:markers fill stroke"
         d="m 135.74397,193.89441 -1e-5,-37.13664"
         id="path10909"
         inkscape:connector-curvature="0" />
      <path
         style="opacity:1;fill:#ececec;fill-opacity:1;stroke:#cccccc;stroke-width:0.2;stroke-linecap:round;stroke-linejoin:bevel;stroke-miterlimit:4;stroke-dasharray:none;stroke-dashoffset:0;stroke-opacity:1;paint-order:markers fill stroke"
         d="m 128.94749,182.12257 6.79647,-25.3648"
         id="path10911"
         inkscape:connector-curvature="0" />
    </g>
    <g
       style="fill:#999999"
       class=""
       transform="matrix(0.00881199,0,0,0.00881199,210.10928,144.4913)"
       id="g11116">
      <path
         style="fill:#999999;fill-opacity:1"
         inkscape:connector-curvature="0"
         d="m 256,54.99 c -27,0 -46.418,14.287 -57.633,32.23 -10.03,16.047 -14.203,34.66 -15.017,50.962 -30.608,15.135 -64.515,30.394 -91.815,45.994 -14.32,8.183 -26.805,16.414 -36.203,25.26 C 45.934,218.28 39,228.24 39,239.99 c 0,5 2.44,9.075 5.19,12.065 2.754,2.99 6.054,5.312 9.812,7.48 7.515,4.336 16.99,7.95 27.412,11.076 15.483,4.646 32.823,8.1 47.9,9.577 -14.996,25.84 -34.953,49.574 -52.447,72.315 C 56.65,378.785 39,403.99 39,431.99 c 0,4 -0.044,7.123 0.31,10.26 0.355,3.137 1.256,7.053 4.41,10.156 3.155,3.104 7.017,3.938 10.163,4.28 3.146,0.345 6.315,0.304 10.38,0.304 h 111.542 c 8.097,0 14.026,0.492 20.125,-3.43 6.1,-3.92 8.324,-9.275 12.67,-17.275 l 0.088,-0.16 0.08,-0.166 c 0,0 9.723,-19.77 21.324,-39.388 5.8,-9.808 12.097,-19.576 17.574,-26.498 2.74,-3.46 5.304,-6.204 7.15,-7.754 0.564,-0.472 0.82,-0.56 1.184,-0.76 0.363,0.2 0.62,0.288 1.184,0.76 1.846,1.55 4.41,4.294 7.15,7.754 5.477,6.922 11.774,16.69 17.574,26.498 11.6,19.618 21.324,39.387 21.324,39.387 l 0.08,0.165 0.088,0.16 c 4.346,8 6.55,13.323 12.61,17.254 6.058,3.93 11.974,3.45 19.957,3.45 H 448 c 4,0 7.12,0.043 10.244,-0.304 3.123,-0.347 6.998,-1.21 10.12,-4.332 3.12,-3.122 3.984,-6.997 4.33,-10.12 0.348,-3.122 0.306,-6.244 0.306,-10.244 0,-28 -17.65,-53.205 -37.867,-79.488 -17.493,-22.74 -37.45,-46.474 -52.447,-72.315 15.077,-1.478 32.417,-4.93 47.9,-9.576 10.422,-3.125 19.897,-6.74 27.412,-11.075 3.758,-2.168 7.058,-4.49 9.81,-7.48 2.753,-2.99 5.192,-7.065 5.192,-12.065 0,-11.75 -6.934,-21.71 -16.332,-30.554 -9.398,-8.846 -21.883,-17.077 -36.203,-25.26 -27.3,-15.6 -61.207,-30.86 -91.815,-45.994 -0.814,-16.3 -4.988,-34.915 -15.017,-50.96 C 302.418,69.276 283,54.99 256,54.99 Z"
         id="path11114" />
    </g>
    <g
       id="g11120"
       transform="matrix(0.00881199,0,0,0.00881199,210.10218,157.46793)"
       class=""
       style="fill:#999999">
      <path
         id="path11118"
         d="m 256,54.99 c -27,0 -46.418,14.287 -57.633,32.23 -10.03,16.047 -14.203,34.66 -15.017,50.962 -30.608,15.135 -64.515,30.394 -91.815,45.994 -14.32,8.183 -26.805,16.414 -36.203,25.26 C 45.934,218.28 39,228.24 39,239.99 c 0,5 2.44,9.075 5.19,12.065 2.754,2.99 6.054,5.312 9.812,7.48 7.515,4.336 16.99,7.95 27.412,11.076 15.483,4.646 32.823,8.1 47.9,9.577 -14.996,25.84 -34.953,49.574 -52.447,72.315 C 56.65,378.785 39,403.99 39,431.99 c 0,4 -0.044,7.123 0.31,10.26 0.355,3.137 1.256,7.053 4.41,10.156 3.155,3.104 7.017,3.938 10.163,4.28 3.146,0.345 6.315,0.304 10.38,0.304 h 111.542 c 8.097,0 14.026,0.492 20.125,-3.43 6.1,-3.92 8.324,-9.275 12.67,-17.275 l 0.088,-0.16 0.08,-0.166 c 0,0 9.723,-19.77 21.324,-39.388 5.8,-9.808 12.097,-19.576 17.574,-26.498 2.74,-3.46 5.304,-6.204 7.15,-7.754 0.564,-0.472 0.82,-0.56 1.184,-0.76 0.363,0.2 0.62,0.288 1.184,0.76 1.846,1.55 4.41,4.294 7.15,7.754 5.477,6.922 11.774,16.69 17.574,26.498 11.6,19.618 21.324,39.387 21.324,39.387 l 0.08,0.165 0.088,0.16 c 4.346,8 6.55,13.323 12.61,17.254 6.058,3.93 11.974,3.45 19.957,3.45 H 448 c 4,0 7.12,0.043 10.244,-0.304 3.123,-0.347 6.998,-1.21 10.12,-4.332 3.12,-3.122 3.984,-6.997 4.33,-10.12 0.348,-3.122 0.306,-6.244 0.306,-10.244 0,-28 -17.65,-53.205 -37.867,-79.488 -17.493,-22.74 -37.45,-46.474 -52.447,-72.315 15.077,-1.478 32.417,-4.93 47.9,-9.576 10.422,-3.125 19.897,-6.74 27.412,-11.075 3.758,-2.168 7.058,-4.49 9.81,-7.48 2.753,-2.99 5.192,-7.065 5.192,-12.065 0,-11.75 -6.934,-21.71 -16.332,-30.554 -9.398,-8.846 -21.883,-17.077 -36.203,-25.26 -27.3,-15.6 -61.207,-30.86 -91.815,-45.994 -0.814,-16.3 -4.988,-34.915 -15.017,-50.96 C 302.418,69.276 283,54.99 256,54.99 Z"
         inkscape:connector-curvature="0"
         style="fill:#999999;fill-opacity:1" />
    </g>
    <g
       style="fill:#999999"
       class=""
       transform="matrix(0.00881199,0,0,0.00881199,203.3931,169.70491)"
       id="g11124">
      <path
         style="fill:#999999;fill-opacity:1"
         inkscape:connector-curvature="0"
         d="m 256,54.99 c -27,0 -46.418,14.287 -57.633,32.23 -10.03,16.047 -14.203,34.66 -15.017,50.962 -30.608,15.135 -64.515,30.394 -91.815,45.994 -14.32,8.183 -26.805,16.414 -36.203,25.26 C 45.934,218.28 39,228.24 39,239.99 c 0,5 2.44,9.075 5.19,12.065 2.754,2.99 6.054,5.312 9.812,7.48 7.515,4.336 16.99,7.95 27.412,11.076 15.483,4.646 32.823,8.1 47.9,9.577 -14.996,25.84 -34.953,49.574 -52.447,72.315 C 56.65,378.785 39,403.99 39,431.99 c 0,4 -0.044,7.123 0.31,10.26 0.355,3.137 1.256,7.053 4.41,10.156 3.155,3.104 7.017,3.938 10.163,4.28 3.146,0.345 6.315,0.304 10.38,0.304 h 111.542 c 8.097,0 14.026,0.492 20.125,-3.43 6.1,-3.92 8.324,-9.275 12.67,-17.275 l 0.088,-0.16 0.08,-0.166 c 0,0 9.723,-19.77 21.324,-39.388 5.8,-9.808 12.097,-19.576 17.574,-26.498 2.74,-3.46 5.304,-6.204 7.15,-7.754 0.564,-0.472 0.82,-0.56 1.184,-0.76 0.363,0.2 0.62,0.288 1.184,0.76 1.846,1.55 4.41,4.294 7.15,7.754 5.477,6.922 11.774,16.69 17.574,26.498 11.6,19.618 21.324,39.387 21.324,39.387 l 0.08,0.165 0.088,0.16 c 4.346,8 6.55,13.323 12.61,17.254 6.058,3.93 11.974,3.45 19.957,3.45 H 448 c 4,0 7.12,0.043 10.244,-0.304 3.123,-0.347 6.998,-1.21 10.12,-4.332 3.12,-3.122 3.984,-6.997 4.33,-10.12 0.348,-3.122 0.306,-6.244 0.306,-10.244 0,-28 -17.65,-53.205 -37.867,-79.488 -17.493,-22.74 -37.45,-46.474 -52.447,-72.315 15.077,-1.478 32.417,-4.93 47.9,-9.576 10.422,-3.125 19.897,-6.74 27.412,-11.075 3.758,-2.168 7.058,-4.49 9.81,-7.48 2.753,-2.99 5.192,-7.065 5.192,-12.065 0,-11.75 -6.934,-21.71 -16.332,-30.554 -9.398,-8.846 -21.883,-17.077 -36.203,-25.26 -27.3,-15.6 -61.207,-30.86 -91.815,-45.994 -0.814,-16.3 -4.988,-34.915 -15.017,-50.96 C 302.418,69.276 283,54.99 256,54.99 Z"
         id="path11122" />
    </g>
    <g
       id="g11128"
       transform="matrix(0.00881199,0,0,0.00881199,191.53386,176.03625)"
       class=""
       style="fill:#999999">
      <path
         id="path11126"
         d="m 256,54.99 c -27,0 -46.418,14.287 -57.633,32.23 -10.03,16.047 -14.203,34.66 -15.017,50.962 -30.608,15.135 -64.515,30.394 -91.815,45.994 -14.32,8.183 -26.805,16.414 -36.203,25.26 C 45.934,218.28 39,228.24 39,239.99 c 0,5 2.44,9.075 5.19,12.065 2.754,2.99 6.054,5.312 9.812,7.48 7.515,4.336 16.99,7.95 27.412,11.076 15.483,4.646 32.823,8.1 47.9,9.577 -14.996,25.84 -34.953,49.574 -52.447,72.315 C 56.65,378.785 39,403.99 39,431.99 c 0,4 -0.044,7.123 0.31,10.26 0.355,3.137 1.256,7.053 4.41,10.156 3.155,3.104 7.017,3.938 10.163,4.28 3.146,0.345 6.315,0.304 10.38,0.304 h 111.542 c 8.097,0 14.026,0.492 20.125,-3.43 6.1,-3.92 8.324,-9.275 12.67,-17.275 l 0.088,-0.16 0.08,-0.166 c 0,0 9.723,-19.77 21.324,-39.388 5.8,-9.808 12.097,-19.576 17.574,-26.498 2.74,-3.46 5.304,-6.204 7.15,-7.754 0.564,-0.472 0.82,-0.56 1.184,-0.76 0.363,0.2 0.62,0.288 1.184,0.76 1.846,1.55 4.41,4.294 7.15,7.754 5.477,6.922 11.774,16.69 17.574,26.498 11.6,19.618 21.324,39.387 21.324,39.387 l 0.08,0.165 0.088,0.16 c 4.346,8 6.55,13.323 12.61,17.254 6.058,3.93 11.974,3.45 19.957,3.45 H 448 c 4,0 7.12,0.043 10.244,-0.304 3.123,-0.347 6.998,-1.21 10.12,-4.332 3.12,-3.122 3.984,-6.997 4.33,-10.12 0.348,-3.122 0.306,-6.244 0.306,-10.244 0,-28 -17.65,-53.205 -37.867,-79.488 -17.493,-22.74 -37.45,-46.474 -52.447,-72.315 15.077,-1.478 32.417,-4.93 47.9,-9.576 10.422,-3.125 19.897,-6.74 27.412,-11.075 3.758,-2.168 7.058,-4.49 9.81,-7.48 2.753,-2.99 5.192,-7.065 5.192,-12.065 0,-11.75 -6.934,-21.71 -16.332,-30.554 -9.398,-8.846 -21.883,-17.077 -36.203,-25.26 -27.3,-15.6 -61.207,-30.86 -91.815,-45.994 -0.814,-16.3 -4.988,-34.915 -15.017,-50.96 C 302.418,69.276 283,54.99 256,54.99 Z"
         inkscape:connector-curvature="0"
         style="fill:#999999;fill-opacity:1" />
    </g>
    <g
       style="fill:#999999"
       class=""
       transform="matrix(0.00881199,0,0,0.00881199,177.94191,176.03625)"
       id="g11132">
      <path
         style="fill:#999999;fill-opacity:1"
         inkscape:connector-curvature="0"
         d="m 256,54.99 c -27,0 -46.418,14.287 -57.633,32.23 -10.03,16.047 -14.203,34.66 -15.017,50.962 -30.608,15.135 -64.515,30.394 -91.815,45.994 -14.32,8.183 -26.805,16.414 -36.203,25.26 C 45.934,218.28 39,228.24 39,239.99 c 0,5 2.44,9.075 5.19,12.065 2.754,2.99 6.054,5.312 9.812,7.48 7.515,4.336 16.99,7.95 27.412,11.076 15.483,4.646 32.823,8.1 47.9,9.577 -14.996,25.84 -34.953,49.574 -52.447,72.315 C 56.65,378.785 39,403.99 39,431.99 c 0,4 -0.044,7.123 0.31,10.26 0.355,3.137 1.256,7.053 4.41,10.156 3.155,3.104 7.017,3.938 10.163,4.28 3.146,0.345 6.315,0.304 10.38,0.304 h 111.542 c 8.097,0 14.026,0.492 20.125,-3.43 6.1,-3.92 8.324,-9.275 12.67,-17.275 l 0.088,-0.16 0.08,-0.166 c 0,0 9.723,-19.77 21.324,-39.388 5.8,-9.808 12.097,-19.576 17.574,-26.498 2.74,-3.46 5.304,-6.204 7.15,-7.754 0.564,-0.472 0.82,-0.56 1.184,-0.76 0.363,0.2 0.62,0.288 1.184,0.76 1.846,1.55 4.41,4.294 7.15,7.754 5.477,6.922 11.774,16.69 17.574,26.498 11.6,19.618 21.324,39.387 21.324,39.387 l 0.08,0.165 0.088,0.16 c 4.346,8 6.55,13.323 12.61,17.254 6.058,3.93 11.974,3.45 19.957,3.45 H 448 c 4,0 7.12,0.043 10.244,-0.304 3.123,-0.347 6.998,-1.21 10.12,-4.332 3.12,-3.122 3.984,-6.997 4.33,-10.12 0.348,-3.122 0.306,-6.244 0.306,-10.244 0,-28 -17.65,-53.205 -37.867,-79.488 -17.493,-22.74 -37.45,-46.474 -52.447,-72.315 15.077,-1.478 32.417,-4.93 47.9,-9.576 10.422,-3.125 19.897,-6.74 27.412,-11.075 3.758,-2.168 7.058,-4.49 9.81,-7.48 2.753,-2.99 5.192,-7.065 5.192,-12.065 0,-11.75 -6.934,-21.71 -16.332,-30.554 -9.398,-8.846 -21.883,-17.077 -36.203,-25.26 -27.3,-15.6 -61.207,-30.86 -91.815,-45.994 -0.814,-16.3 -4.988,-34.915 -15.017,-50.96 C 302.418,69.276 283,54.99 256,54.99 Z"
         id="path11130" />
    </g>
    <g
       id="g11136"
       transform="matrix(0.00881199,0,0,0.00881199,166.31914,169.79964)"
       class=""
       style="fill:#999999">
      <path
         id="path11134"
         d="m 256,54.99 c -27,0 -46.418,14.287 -57.633,32.23 -10.03,16.047 -14.203,34.66 -15.017,50.962 -30.608,15.135 -64.515,30.394 -91.815,45.994 -14.32,8.183 -26.805,16.414 -36.203,25.26 C 45.934,218.28 39,228.24 39,239.99 c 0,5 2.44,9.075 5.19,12.065 2.754,2.99 6.054,5.312 9.812,7.48 7.515,4.336 16.99,7.95 27.412,11.076 15.483,4.646 32.823,8.1 47.9,9.577 -14.996,25.84 -34.953,49.574 -52.447,72.315 C 56.65,378.785 39,403.99 39,431.99 c 0,4 -0.044,7.123 0.31,10.26 0.355,3.137 1.256,7.053 4.41,10.156 3.155,3.104 7.017,3.938 10.163,4.28 3.146,0.345 6.315,0.304 10.38,0.304 h 111.542 c 8.097,0 14.026,0.492 20.125,-3.43 6.1,-3.92 8.324,-9.275 12.67,-17.275 l 0.088,-0.16 0.08,-0.166 c 0,0 9.723,-19.77 21.324,-39.388 5.8,-9.808 12.097,-19.576 17.574,-26.498 2.74,-3.46 5.304,-6.204 7.15,-7.754 0.564,-0.472 0.82,-0.56 1.184,-0.76 0.363,0.2 0.62,0.288 1.184,0.76 1.846,1.55 4.41,4.294 7.15,7.754 5.477,6.922 11.774,16.69 17.574,26.498 11.6,19.618 21.324,39.387 21.324,39.387 l 0.08,0.165 0.088,0.16 c 4.346,8 6.55,13.323 12.61,17.254 6.058,3.93 11.974,3.45 19.957,3.45 H 448 c 4,0 7.12,0.043 10.244,-0.304 3.123,-0.347 6.998,-1.21 10.12,-4.332 3.12,-3.122 3.984,-6.997 4.33,-10.12 0.348,-3.122 0.306,-6.244 0.306,-10.244 0,-28 -17.65,-53.205 -37.867,-79.488 -17.493,-22.74 -37.45,-46.474 -52.447,-72.315 15.077,-1.478 32.417,-4.93 47.9,-9.576 10.422,-3.125 19.897,-6.74 27.412,-11.075 3.758,-2.168 7.058,-4.49 9.81,-7.48 2.753,-2.99 5.192,-7.065 5.192,-12.065 0,-11.75 -6.934,-21.71 -16.332,-30.554 -9.398,-8.846 -21.883,-17.077 -36.203,-25.26 -27.3,-15.6 -61.207,-30.86 -91.815,-45.994 -0.814,-16.3 -4.988,-34.915 -15.017,-50.96 C 302.418,69.276 283,54.99 256,54.99 Z"
         inkscape:connector-curvature="0"
         style="fill:#999999;fill-opacity:1" />
    </g>
    <g
       style="fill:#999999"
       class=""
       transform="matrix(0.00881199,0,0,0.00881199,159.51557,157.98788)"
       id="g11140">
      <path
         style="fill:#999999;fill-opacity:1"
         inkscape:connector-curvature="0"
         d="m 256,54.99 c -27,0 -46.418,14.287 -57.633,32.23 -10.03,16.047 -14.203,34.66 -15.017,50.962 -30.608,15.135 -64.515,30.394 -91.815,45.994 -14.32,8.183 -26.805,16.414 -36.203,25.26 C 45.934,218.28 39,228.24 39,239.99 c 0,5 2.44,9.075 5.19,12.065 2.754,2.99 6.054,5.312 9.812,7.48 7.515,4.336 16.99,7.95 27.412,11.076 15.483,4.646 32.823,8.1 47.9,9.577 -14.996,25.84 -34.953,49.574 -52.447,72.315 C 56.65,378.785 39,403.99 39,431.99 c 0,4 -0.044,7.123 0.31,10.26 0.355,3.137 1.256,7.053 4.41,10.156 3.155,3.104 7.017,3.938 10.163,4.28 3.146,0.345 6.315,0.304 10.38,0.304 h 111.542 c 8.097,0 14.026,0.492 20.125,-3.43 6.1,-3.92 8.324,-9.275 12.67,-17.275 l 0.088,-0.16 0.08,-0.166 c 0,0 9.723,-19.77 21.324,-39.388 5.8,-9.808 12.097,-19.576 17.574,-26.498 2.74,-3.46 5.304,-6.204 7.15,-7.754 0.564,-0.472 0.82,-0.56 1.184,-0.76 0.363,0.2 0.62,0.288 1.184,0.76 1.846,1.55 4.41,4.294 7.15,7.754 5.477,6.922 11.774,16.69 17.574,26.498 11.6,19.618 21.324,39.387 21.324,39.387 l 0.08,0.165 0.088,0.16 c 4.346,8 6.55,13.323 12.61,17.254 6.058,3.93 11.974,3.45 19.957,3.45 H 448 c 4,0 7.12,0.043 10.244,-0.304 3.123,-0.347 6.998,-1.21 10.12,-4.332 3.12,-3.122 3.984,-6.997 4.33,-10.12 0.348,-3.122 0.306,-6.244 0.306,-10.244 0,-28 -17.65,-53.205 -37.867,-79.488 -17.493,-22.74 -37.45,-46.474 -52.447,-72.315 15.077,-1.478 32.417,-4.93 47.9,-9.576 10.422,-3.125 19.897,-6.74 27.412,-11.075 3.758,-2.168 7.058,-4.49 9.81,-7.48 2.753,-2.99 5.192,-7.065 5.192,-12.065 0,-11.75 -6.934,-21.71 -16.332,-30.554 -9.398,-8.846 -21.883,-17.077 -36.203,-25.26 -27.3,-15.6 -61.207,-30.86 -91.815,-45.994 -0.814,-16.3 -4.988,-34.915 -15.017,-50.96 C 302.418,69.276 283,54.99 256,54.99 Z"
         id="path11138" />
    </g>
    <g
       id="g11144"
       transform="matrix(0.00881199,0,0,0.00881199,159.25313,144.41552)"
       class=""
       style="fill:#999999">
      <path
         id="path11142"
         d="m 256,54.99 c -27,0 -46.418,14.287 -57.633,32.23 -10.03,16.047 -14.203,34.66 -15.017,50.962 -30.608,15.135 -64.515,30.394 -91.815,45.994 -14.32,8.183 -26.805,16.414 -36.203,25.26 C 45.934,218.28 39,228.24 39,239.99 c 0,5 2.44,9.075 5.19,12.065 2.754,2.99 6.054,5.312 9.812,7.48 7.515,4.336 16.99,7.95 27.412,11.076 15.483,4.646 32.823,8.1 47.9,9.577 -14.996,25.84 -34.953,49.574 -52.447,72.315 C 56.65,378.785 39,403.99 39,431.99 c 0,4 -0.044,7.123 0.31,10.26 0.355,3.137 1.256,7.053 4.41,10.156 3.155,3.104 7.017,3.938 10.163,4.28 3.146,0.345 6.315,0.304 10.38,0.304 h 111.542 c 8.097,0 14.026,0.492 20.125,-3.43 6.1,-3.92 8.324,-9.275 12.67,-17.275 l 0.088,-0.16 0.08,-0.166 c 0,0 9.723,-19.77 21.324,-39.388 5.8,-9.808 12.097,-19.576 17.574,-26.498 2.74,-3.46 5.304,-6.204 7.15,-7.754 0.564,-0.472 0.82,-0.56 1.184,-0.76 0.363,0.2 0.62,0.288 1.184,0.76 1.846,1.55 4.41,4.294 7.15,7.754 5.477,6.922 11.774,16.69 17.574,26.498 11.6,19.618 21.324,39.387 21.324,39.387 l 0.08,0.165 0.088,0.16 c 4.346,8 6.55,13.323 12.61,17.254 6.058,3.93 11.974,3.45 19.957,3.45 H 448 c 4,0 7.12,0.043 10.244,-0.304 3.123,-0.347 6.998,-1.21 10.12,-4.332 3.12,-3.122 3.984,-6.997 4.33,-10.12 0.348,-3.122 0.306,-6.244 0.306,-10.244 0,-28 -17.65,-53.205 -37.867,-79.488 -17.493,-22.74 -37.45,-46.474 -52.447,-72.315 15.077,-1.478 32.417,-4.93 47.9,-9.576 10.422,-3.125 19.897,-6.74 27.412,-11.075 3.758,-2.168 7.058,-4.49 9.81,-7.48 2.753,-2.99 5.192,-7.065 5.192,-12.065 0,-11.75 -6.934,-21.71 -16.332,-30.554 -9.398,-8.846 -21.883,-17.077 -36.203,-25.26 -27.3,-15.6 -61.207,-30.86 -91.815,-45.994 -0.814,-16.3 -4.988,-34.915 -15.017,-50.96 C 302.418,69.276 283,54.99 256,54.99 Z"
         inkscape:connector-curvature="0"
         style="fill:#999999;fill-opacity:1" />
    </g>
    <g
       style="fill:#999999"
       class=""
       transform="matrix(0.00881199,0,0,0.00881199,166.17006,132.6323)"
       id="g11148">
      <path
         style="fill:#999999;fill-opacity:1"
         inkscape:connector-curvature="0"
         d="m 256,54.99 c -27,0 -46.418,14.287 -57.633,32.23 -10.03,16.047 -14.203,34.66 -15.017,50.962 -30.608,15.135 -64.515,30.394 -91.815,45.994 -14.32,8.183 -26.805,16.414 -36.203,25.26 C 45.934,218.28 39,228.24 39,239.99 c 0,5 2.44,9.075 5.19,12.065 2.754,2.99 6.054,5.312 9.812,7.48 7.515,4.336 16.99,7.95 27.412,11.076 15.483,4.646 32.823,8.1 47.9,9.577 -14.996,25.84 -34.953,49.574 -52.447,72.315 C 56.65,378.785 39,403.99 39,431.99 c 0,4 -0.044,7.123 0.31,10.26 0.355,3.137 1.256,7.053 4.41,10.156 3.155,3.104 7.017,3.938 10.163,4.28 3.146,0.345 6.315,0.304 10.38,0.304 h 111.542 c 8.097,0 14.026,0.492 20.125,-3.43 6.1,-3.92 8.324,-9.275 12.67,-17.275 l 0.088,-0.16 0.08,-0.166 c 0,0 9.723,-19.77 21.324,-39.388 5.8,-9.808 12.097,-19.576 17.574,-26.498 2.74,-3.46 5.304,-6.204 7.15,-7.754 0.564,-0.472 0.82,-0.56 1.184,-0.76 0.363,0.2 0.62,0.288 1.184,0.76 1.846,1.55 4.41,4.294 7.15,7.754 5.477,6.922 11.774,16.69 17.574,26.498 11.6,19.618 21.324,39.387 21.324,39.387 l 0.08,0.165 0.088,0.16 c 4.346,8 6.55,13.323 12.61,17.254 6.058,3.93 11.974,3.45 19.957,3.45 H 448 c 4,0 7.12,0.043 10.244,-0.304 3.123,-0.347 6.998,-1.21 10.12,-4.332 3.12,-3.122 3.984,-6.997 4.33,-10.12 0.348,-3.122 0.306,-6.244 0.306,-10.244 0,-28 -17.65,-53.205 -37.867,-79.488 -17.493,-22.74 -37.45,-46.474 -52.447,-72.315 15.077,-1.478 32.417,-4.93 47.9,-9.576 10.422,-3.125 19.897,-6.74 27.412,-11.075 3.758,-2.168 7.058,-4.49 9.81,-7.48 2.753,-2.99 5.192,-7.065 5.192,-12.065 0,-11.75 -6.934,-21.71 -16.332,-30.554 -9.398,-8.846 -21.883,-17.077 -36.203,-25.26 -27.3,-15.6 -61.207,-30.86 -91.815,-45.994 -0.814,-16.3 -4.988,-34.915 -15.017,-50.96 C 302.418,69.276 283,54.99 256,54.99 Z"
         id="path11146" />
    </g>
    <g
       id="g11152"
       transform="matrix(0.00881199,0,0,0.00881199,177.88732,125.78148)"
       class=""
       style="fill:#999999">
      <path
         id="path11150"
         d="m 256,54.99 c -27,0 -46.418,14.287 -57.633,32.23 -10.03,16.047 -14.203,34.66 -15.017,50.962 -30.608,15.135 -64.515,30.394 -91.815,45.994 -14.32,8.183 -26.805,16.414 -36.203,25.26 C 45.934,218.28 39,228.24 39,239.99 c 0,5 2.44,9.075 5.19,12.065 2.754,2.99 6.054,5.312 9.812,7.48 7.515,4.336 16.99,7.95 27.412,11.076 15.483,4.646 32.823,8.1 47.9,9.577 -14.996,25.84 -34.953,49.574 -52.447,72.315 C 56.65,378.785 39,403.99 39,431.99 c 0,4 -0.044,7.123 0.31,10.26 0.355,3.137 1.256,7.053 4.41,10.156 3.155,3.104 7.017,3.938 10.163,4.28 3.146,0.345 6.315,0.304 10.38,0.304 h 111.542 c 8.097,0 14.026,0.492 20.125,-3.43 6.1,-3.92 8.324,-9.275 12.67,-17.275 l 0.088,-0.16 0.08,-0.166 c 0,0 9.723,-19.77 21.324,-39.388 5.8,-9.808 12.097,-19.576 17.574,-26.498 2.74,-3.46 5.304,-6.204 7.15,-7.754 0.564,-0.472 0.82,-0.56 1.184,-0.76 0.363,0.2 0.62,0.288 1.184,0.76 1.846,1.55 4.41,4.294 7.15,7.754 5.477,6.922 11.774,16.69 17.574,26.498 11.6,19.618 21.324,39.387 21.324,39.387 l 0.08,0.165 0.088,0.16 c 4.346,8 6.55,13.323 12.61,17.254 6.058,3.93 11.974,3.45 19.957,3.45 H 448 c 4,0 7.12,0.043 10.244,-0.304 3.123,-0.347 6.998,-1.21 10.12,-4.332 3.12,-3.122 3.984,-6.997 4.33,-10.12 0.348,-3.122 0.306,-6.244 0.306,-10.244 0,-28 -17.65,-53.205 -37.867,-79.488 -17.493,-22.74 -37.45,-46.474 -52.447,-72.315 15.077,-1.478 32.417,-4.93 47.9,-9.576 10.422,-3.125 19.897,-6.74 27.412,-11.075 3.758,-2.168 7.058,-4.49 9.81,-7.48 2.753,-2.99 5.192,-7.065 5.192,-12.065 0,-11.75 -6.934,-21.71 -16.332,-30.554 -9.398,-8.846 -21.883,-17.077 -36.203,-25.26 -27.3,-15.6 -61.207,-30.86 -91.815,-45.994 -0.814,-16.3 -4.988,-34.915 -15.017,-50.96 C 302.418,69.276 283,54.99 256,54.99 Z"
         inkscape:connector-curvature="0"
         style="fill:#999999;fill-opacity:1" />
    </g>
    <g
       style="fill:#00ff00"
       class=""
       transform="matrix(0.00881199,0,0,0.00881199,191.35272,125.78148)"
       id="g11156">
      <path
         style="fill:#00ff00;fill-opacity:1"
         inkscape:connector-curvature="0"
         d="m 256,54.99 c -27,0 -46.418,14.287 -57.633,32.23 -10.03,16.047 -14.203,34.66 -15.017,50.962 -30.608,15.135 -64.515,30.394 -91.815,45.994 -14.32,8.183 -26.805,16.414 -36.203,25.26 C 45.934,218.28 39,228.24 39,239.99 c 0,5 2.44,9.075 5.19,12.065 2.754,2.99 6.054,5.312 9.812,7.48 7.515,4.336 16.99,7.95 27.412,11.076 15.483,4.646 32.823,8.1 47.9,9.577 -14.996,25.84 -34.953,49.574 -52.447,72.315 C 56.65,378.785 39,403.99 39,431.99 c 0,4 -0.044,7.123 0.31,10.26 0.355,3.137 1.256,7.053 4.41,10.156 3.155,3.104 7.017,3.938 10.163,4.28 3.146,0.345 6.315,0.304 10.38,0.304 h 111.542 c 8.097,0 14.026,0.492 20.125,-3.43 6.1,-3.92 8.324,-9.275 12.67,-17.275 l 0.088,-0.16 0.08,-0.166 c 0,0 9.723,-19.77 21.324,-39.388 5.8,-9.808 12.097,-19.576 17.574,-26.498 2.74,-3.46 5.304,-6.204 7.15,-7.754 0.564,-0.472 0.82,-0.56 1.184,-0.76 0.363,0.2 0.62,0.288 1.184,0.76 1.846,1.55 4.41,4.294 7.15,7.754 5.477,6.922 11.774,16.69 17.574,26.498 11.6,19.618 21.324,39.387 21.324,39.387 l 0.08,0.165 0.088,0.16 c 4.346,8 6.55,13.323 12.61,17.254 6.058,3.93 11.974,3.45 19.957,3.45 H 448 c 4,0 7.12,0.043 10.244,-0.304 3.123,-0.347 6.998,-1.21 10.12,-4.332 3.12,-3.122 3.984,-6.997 4.33,-10.12 0.348,-3.122 0.306,-6.244 0.306,-10.244 0,-28 -17.65,-53.205 -37.867,-79.488 -17.493,-22.74 -37.45,-46.474 -52.447,-72.315 15.077,-1.478 32.417,-4.93 47.9,-9.576 10.422,-3.125 19.897,-6.74 27.412,-11.075 3.758,-2.168 7.058,-4.49 9.81,-7.48 2.753,-2.99 5.192,-7.065 5.192,-12.065 0,-11.75 -6.934,-21.71 -16.332,-30.554 -9.398,-8.846 -21.883,-17.077 -36.203,-25.26 -27.3,-15.6 -61.207,-30.86 -91.815,-45.994 -0.814,-16.3 -4.988,-34.915 -15.017,-50.96 C 302.418,69.276 283,54.99 256,54.99 Z"
         id="path11154" />
    </g>
    <g
       transform="matrix(0.1055606,0,0,0.1055606,191.80873,126.84281)"
       id="g1043">
      <path
         style="fill:#5c913b"
         inkscape:connector-curvature="0"
         d="M 6.032,6.345 C 5.623,6.345 5.24,6.092 5.092,5.686 5.076,5.644 4.217,3.433 2.678,3.25 2.13,3.185 1.738,2.687 1.803,2.139 1.868,1.591 2.37,1.206 2.914,1.264 5.716,1.597 6.923,4.867 6.973,5.006 7.16,5.525 6.89,6.098 6.37,6.285 6.258,6.325 6.144,6.345 6.032,6.345 Z"
         id="path1015" />
      <path
         style="fill:#5c913b"
         inkscape:connector-curvature="0"
         d="M 7.902,6.501 C 7.815,6.501 7.726,6.489 7.638,6.465 7.106,6.321 6.792,5.772 6.936,5.241 6.946,5.201 7.514,2.895 6.358,1.861 5.946,1.493 5.911,0.861 6.279,0.449 6.647,0.038 7.28,0.002 7.691,0.371 9.794,2.252 8.905,5.622 8.866,5.765 8.745,6.209 8.342,6.501 7.902,6.501 Z"
         id="path1017" />
      <path
         style="fill:#5c913b"
         inkscape:connector-curvature="0"
         d="M 10.348,6.544 C 10.198,6.544 10.045,6.51 9.901,6.438 9.408,6.191 9.208,5.592 9.454,5.099 9.465,5.078 10.487,2.917 9.554,1.671 9.223,1.229 9.313,0.602 9.756,0.271 c 0.442,-0.33 1.068,-0.24 1.4,0.202 1.69,2.259 0.154,5.387 0.088,5.52 -0.176,0.349 -0.529,0.551 -0.896,0.551 z"
         id="path1019" />
      <path
         style="fill:#5c913b"
         inkscape:connector-curvature="0"
         d="M 12.624,6.486 C 12.399,6.486 12.173,6.411 11.987,6.257 11.562,5.905 11.503,5.277 11.852,4.851 11.877,4.82 13.346,2.953 12.719,1.534 12.496,1.029 12.724,0.439 13.23,0.216 c 0.504,-0.224 1.095,0.005 1.318,0.511 1.14,2.581 -1.059,5.284 -1.153,5.398 -0.198,0.238 -0.483,0.361 -0.771,0.361 z"
         id="path1021" />
      <path
         style="fill:#5c913b"
         inkscape:connector-curvature="0"
         d="m 15.28,6.428 c -0.281,0 -0.561,-0.118 -0.759,-0.348 -0.359,-0.418 -0.312,-1.048 0.104,-1.409 0.03,-0.027 1.792,-1.62 1.412,-3.124 -0.135,-0.536 0.189,-1.079 0.725,-1.214 0.536,-0.133 1.08,0.189 1.214,0.725 0.69,2.736 -1.933,5.031 -2.045,5.128 -0.188,0.163 -0.42,0.242 -0.651,0.242 z m 2.971,0.408 c -0.354,0 -0.697,-0.188 -0.878,-0.521 -0.264,-0.484 -0.087,-1.09 0.395,-1.355 0.021,-0.012 2.09,-1.205 2.035,-2.761 -0.021,-0.552 0.411,-1.016 0.963,-1.036 0.556,-0.008 1.015,0.411 1.035,0.963 0.103,2.819 -2.941,4.516 -3.071,4.586 -0.152,0.085 -0.316,0.124 -0.479,0.124 z m 3.162,1.074 c -0.441,0 -0.847,-0.296 -0.966,-0.743 -0.142,-0.533 0.175,-1.08 0.707,-1.223 0.048,-0.013 2.319,-0.682 2.632,-2.198 0.111,-0.542 0.64,-0.89 1.182,-0.777 0.541,0.112 0.889,0.641 0.777,1.182 -0.57,2.763 -3.931,3.688 -4.074,3.726 -0.086,0.021 -0.172,0.033 -0.258,0.033 z m 3.13,1.755 c -0.51,0 -0.945,-0.388 -0.994,-0.906 -0.053,-0.549 0.35,-1.036 0.897,-1.089 0.032,-0.003 2.397,-0.284 2.959,-1.734 0.199,-0.515 0.777,-0.769 1.294,-0.571 0.515,0.2 0.771,0.779 0.571,1.294 -1.02,2.631 -4.485,2.988 -4.632,3.002 -0.032,0.003 -0.064,0.004 -0.095,0.004 z m 3.083,3.67 c -0.265,0 -0.436,-0.014 -0.466,-0.017 -0.55,-0.05 -0.956,-0.536 -0.906,-1.086 0.05,-0.549 0.548,-0.958 1.083,-0.906 0.049,0.003 2.412,0.154 3.226,-1.162 0.291,-0.47 0.909,-0.614 1.376,-0.325 0.471,0.291 0.615,0.907 0.325,1.376 -1.179,1.908 -3.614,2.12 -4.638,2.12 z m 3.551,4.541 c -1.004,0 -1.783,-0.21 -1.85,-0.229 -0.532,-0.148 -0.844,-0.699 -0.696,-1.231 0.149,-0.531 0.703,-0.841 1.229,-0.696 0.023,0.006 2.34,0.594 3.383,-0.561 0.371,-0.411 1.004,-0.442 1.413,-0.071 0.409,0.37 0.441,1.002 0.071,1.412 -1.003,1.109 -2.419,1.376 -3.55,1.376 z m 1.515,5.104 c -1.597,0 -2.987,-0.719 -3.074,-0.765 -0.488,-0.258 -0.676,-0.862 -0.418,-1.352 0.258,-0.487 0.859,-0.676 1.349,-0.419 0.021,0.011 2.16,1.078 3.426,0.17 0.448,-0.321 1.074,-0.217 1.396,0.231 0.321,0.449 0.218,1.073 -0.231,1.396 -0.774,0.554 -1.637,0.739 -2.448,0.739 z m 0.162,4.475 c -2.046,0 -3.795,-1.495 -3.886,-1.573 -0.417,-0.362 -0.461,-0.994 -0.099,-1.411 0.363,-0.417 0.992,-0.46 1.409,-0.101 0.043,0.037 1.867,1.535 3.295,0.947 0.51,-0.21 1.095,0.03 1.306,0.542 0.211,0.511 -0.031,1.096 -0.542,1.306 -0.499,0.206 -1,0.29 -1.483,0.29 z m -1.083,4.305 c -2.807,0 -4.401,-3.076 -4.468,-3.207 -0.25,-0.493 -0.054,-1.095 0.438,-1.345 0.493,-0.25 1.091,-0.055 1.344,0.437 0.015,0.028 1.138,2.115 2.687,2.115 h 0.018 c 0.55,0 0.996,0.443 1,0.993 0.004,0.553 -0.441,1.003 -0.993,1.007 z m -6.809,4.129 c -0.206,0 -0.413,-0.063 -0.592,-0.194 -2.272,-1.673 -1.709,-5.111 -1.684,-5.257 0.095,-0.544 0.61,-0.905 1.155,-0.815 0.543,0.094 0.908,0.609 0.816,1.152 -0.006,0.034 -0.354,2.389 0.897,3.309 0.444,0.327 0.54,0.953 0.213,1.398 -0.195,0.266 -0.497,0.407 -0.805,0.407 z m 3.585,-1.108 c -0.132,0 -0.265,-0.025 -0.393,-0.08 -2.595,-1.108 -2.834,-4.584 -2.843,-4.731 -0.033,-0.552 0.387,-1.025 0.938,-1.059 0.545,-0.032 1.023,0.384 1.059,0.935 0.002,0.03 0.202,2.405 1.632,3.016 0.508,0.217 0.744,0.805 0.527,1.312 -0.162,0.38 -0.532,0.607 -0.92,0.607 z m -11.075,0.031 c -0.487,0 -0.914,-0.357 -0.988,-0.854 -0.413,-2.791 2.425,-4.813 2.546,-4.898 0.45,-0.316 1.076,-0.207 1.393,0.246 0.316,0.451 0.207,1.074 -0.244,1.391 -0.045,0.033 -1.942,1.439 -1.716,2.969 0.081,0.547 -0.296,1.055 -0.843,1.136 -0.05,0.006 -0.099,0.01 -0.148,0.01 z"
         id="path1023" />
      <path
         style="fill:#5c913b"
         inkscape:connector-curvature="0"
         d="m 20.883,35.956 c -0.359,0 -0.707,-0.194 -0.886,-0.534 -1.315,-2.496 0.693,-5.345 0.779,-5.465 0.322,-0.45 0.945,-0.553 1.396,-0.229 0.448,0.321 0.551,0.944 0.231,1.394 -0.023,0.032 -1.359,1.996 -0.637,3.369 0.258,0.488 0.07,1.094 -0.419,1.351 -0.148,0.077 -0.307,0.114 -0.464,0.114 z M 14.049,32.01 c -0.072,0 -0.145,-0.008 -0.218,-0.023 -0.539,-0.12 -0.879,-0.654 -0.759,-1.193 0.612,-2.755 3.986,-3.628 4.129,-3.663 0.535,-0.134 1.079,0.19 1.213,0.728 0.134,0.534 -0.19,1.076 -0.725,1.212 -0.023,0.006 -2.327,0.638 -2.665,2.157 -0.104,0.464 -0.517,0.782 -0.975,0.782 z m -1.665,-3.622 c -0.129,0 -0.26,-0.024 -0.386,-0.078 -0.509,-0.213 -0.749,-0.8 -0.536,-1.309 1.091,-2.602 4.566,-2.862 4.714,-2.872 0.537,-0.03 1.027,0.381 1.064,0.932 0.037,0.55 -0.378,1.025 -0.928,1.064 -0.033,0.002 -2.404,0.217 -3.005,1.649 -0.161,0.383 -0.532,0.614 -0.923,0.614 z m -1.363,-4.306 c -0.209,0 -0.421,-0.065 -0.601,-0.202 -0.441,-0.332 -0.529,-0.959 -0.196,-1.4 1.699,-2.252 5.131,-1.649 5.276,-1.622 0.543,0.101 0.902,0.622 0.802,1.165 -0.1,0.542 -0.619,0.9 -1.162,0.803 -0.022,-0.005 -2.383,-0.383 -3.32,0.859 -0.196,0.26 -0.496,0.397 -0.799,0.397 z m -1.76,-3.399 c -0.185,0 -0.372,-0.051 -0.539,-0.158 -0.465,-0.298 -0.601,-0.916 -0.302,-1.381 1.522,-2.377 4.991,-2.036 5.138,-2.02 0.549,0.059 0.947,0.551 0.888,1.1 -0.058,0.549 -0.545,0.938 -1.098,0.889 -0.05,-0.01 -2.409,-0.195 -3.245,1.108 -0.19,0.3 -0.512,0.462 -0.842,0.462 z M 6.353,18.274 c -0.121,0 -0.244,-0.022 -0.364,-0.069 -0.514,-0.201 -0.768,-0.781 -0.567,-1.295 1.027,-2.628 4.495,-2.973 4.642,-2.987 0.553,-0.039 1.037,0.355 1.087,0.905 0.05,0.549 -0.354,1.035 -0.902,1.086 -0.037,0.004 -2.399,0.278 -2.964,1.724 -0.155,0.395 -0.532,0.636 -0.932,0.636 z M 2.89,15.691 C 2.769,15.691 2.646,15.669 2.526,15.622 2.012,15.421 1.758,14.841 1.959,14.327 2.986,11.699 6.454,11.354 6.601,11.34 7.157,11.301 7.638,11.695 7.688,12.245 7.738,12.794 7.334,13.28 6.786,13.331 6.749,13.335 4.387,13.609 3.822,15.055 3.667,15.449 3.29,15.691 2.89,15.691 Z"
         id="path1025" />
      <path
         style="fill:#5c913b"
         inkscape:connector-curvature="0"
         d="M 5.828,11.457 C 5.661,11.457 5.492,11.415 5.337,11.328 5.316,11.316 3.214,10.181 1.919,11.047 1.46,11.352 0.839,11.23 0.532,10.771 0.225,10.312 0.348,9.691 0.808,9.384 3.153,7.816 6.196,9.516 6.325,9.589 6.804,9.862 6.972,10.473 6.699,10.953 6.514,11.275 6.176,11.457 5.828,11.457 Z M 5.407,8.839 C 5.123,8.839 4.841,8.718 4.643,8.485 4.613,8.452 3.044,6.673 1.535,7.037 0.995,7.163 0.458,6.834 0.329,6.298 0.201,5.761 0.531,5.221 1.068,5.092 3.817,4.437 6.076,7.083 6.172,7.196 6.527,7.619 6.473,8.25 6.05,8.605 5.862,8.762 5.634,8.839 5.407,8.839 Z"
         id="path1027" />
      <path
         style="fill:#3e721d"
         inkscape:connector-curvature="0"
         d="m 12.802,2.922 c -3.988,0 -8.432,1.417 -9.21,4.124 -1.087,3.783 1.763,5.681 4.053,7.207 1.751,1.167 3.563,2.373 4.566,4.456 l 0.051,0.105 0.063,0.099 c 0.978,1.541 1.544,3.54 2.092,5.473 1.086,3.834 2.438,8.606 7.835,8.606 C 25.2,32.988 28.197,30.711 29.9,27.19 32.52,21.773 31.549,15.329 27.303,9.953 22.264,3.831 16.056,2.922 12.802,2.922 Z"
         id="path1029" />
      <path
         style="fill:#77b255"
         inkscape:connector-curvature="0"
         d="m 12.802,4.922 c 4.04,0 9.016,1.514 12.931,6.271 7.573,9.587 1.618,19.792 -3.472,19.799 H 22.252 C 16.25,30.992 17.23,22.91 14.013,17.841 11.316,12.24 4.25,12 5.515,7.598 5.879,6.331 8.905,4.922 12.802,4.922"
         id="path1031" />
      <circle
         style="fill:#3e721d"
         cx="23"
         cy="24"
         r="3"
         id="circle1033" />
      <circle
         style="fill:#c6e5b3"
         cx="24"
         cy="17"
         r="2"
         id="circle1035" />
      <circle
         style="fill:#c6e5b3"
         cx="17"
         cy="15"
         r="2"
         id="circle1037" />
      <circle
         style="fill:#c6e5b3"
         cx="20"
         cy="10"
         r="1"
         id="circle1039" />
      <circle
         style="fill:#c6e5b3"
         cx="11"
         cy="8"
         r="1"
         id="circle1041" />
    </g>
  </g>
</svg>
